<svg width="2835" height="567" viewBox="0 0 2835 567" fill="none" xmlns="http://www.w3.org/2000/svg">
<path d="M123.473 186.801V299.906C123.473 376.252 123.473 405.471 109.335 438.932C99.4385 462.495 78.7025 484.645 40.5295 511.036C34.4029 515.278 26.8625 520.462 22.1498 522.818C21.2073 523.289 20.2647 523.761 18.8509 523.761C17.4371 523.761 15.552 522.818 15.552 520.933C15.552 518.106 17.9084 516.692 22.1498 513.864C27.8051 510.565 34.4029 504.91 38.6444 500.668C69.2771 469.564 83.8865 444.587 83.8865 322.999V186.801C83.8865 113.282 83.8865 100.087 82.944 85.0058C82.0015 68.9826 78.2313 61.4422 62.6793 58.1433C58.9091 57.2007 50.8975 56.7295 46.656 56.7295C44.7709 56.7295 42.8858 55.7869 42.8858 53.9018C42.8858 51.0742 45.2422 50.1317 50.4262 50.1317C71.6335 50.1317 101.324 51.5455 103.68 51.5455C106.036 51.5455 135.727 50.1317 149.865 50.1317C155.049 50.1317 157.405 51.0742 157.405 53.9018C157.405 55.7869 155.52 56.7295 153.635 56.7295C150.336 56.7295 147.508 57.2007 141.853 58.1433C129.129 60.4997 125.359 68.5113 124.416 85.0058C123.473 100.087 123.473 113.282 123.473 186.801ZM268.184 290.009V219.319C268.184 157.111 268.184 145.8 267.241 133.076C266.299 119.409 263.942 112.811 250.275 110.926C246.976 110.455 239.907 109.983 236.137 109.983C234.723 109.983 232.838 108.098 232.838 106.684C232.838 104.328 234.723 103.385 239.436 103.385C258.287 103.385 285.149 104.328 287.506 104.328C290.333 104.328 377.048 104.799 386.473 104.328C394.485 103.857 402.025 102.443 405.324 101.972C407.209 101.5 409.094 100.087 410.979 100.087C412.393 100.087 412.864 101.972 412.864 103.857C412.864 106.684 410.508 111.397 409.565 122.708C409.094 126.478 408.152 144.386 407.209 149.099C406.738 150.984 405.324 153.34 403.439 153.34C401.083 153.34 400.14 151.455 400.14 148.156C400.14 145.329 399.669 138.731 397.784 134.018C394.956 127.42 390.715 124.593 368.093 121.765C361.024 120.823 312.955 120.351 308.242 120.351C306.357 120.351 305.885 121.765 305.885 124.593V233.457C305.885 236.284 305.885 237.698 308.242 237.698C313.426 237.698 368.093 237.698 377.519 236.756C387.416 235.813 393.542 235.342 397.784 231.1C400.611 228.273 402.496 225.916 403.91 225.916C405.324 225.916 406.267 226.859 406.267 229.215C406.267 231.572 403.91 238.169 402.968 251.365C402.025 259.377 401.083 274.457 401.083 277.285C401.083 280.584 400.14 284.825 397.312 284.825C395.427 284.825 394.485 283.412 394.485 281.055C394.485 277.285 394.485 273.044 392.6 267.86C391.186 262.204 387.416 257.492 371.392 255.607C360.082 254.193 315.782 253.721 308.713 253.721C306.357 253.721 305.885 255.135 305.885 256.549V290.009C305.885 303.676 305.414 350.332 305.885 358.344C306.828 385.207 314.368 390.391 355.369 390.391C366.208 390.391 386.002 390.391 396.841 386.149C407.68 381.436 413.336 374.367 415.692 358.344C416.635 353.631 417.577 352.217 419.933 352.217C422.29 352.217 422.761 355.516 422.761 358.344C422.761 361.172 419.462 388.505 417.106 396.988C414.278 407.356 410.037 407.356 394.013 407.356C362.909 407.356 338.875 406.414 321.909 405.943C304.472 405 293.632 405 287.506 405C286.563 405 278.552 405 269.597 405.471C261.586 405.943 252.16 406.414 245.563 406.414C241.321 406.414 238.965 405.471 238.965 403.115C238.965 401.701 239.907 399.816 242.264 399.816C246.034 399.816 251.218 398.402 254.988 397.931C263 396.517 263.942 388.505 265.827 376.724C268.184 360.229 268.184 328.654 268.184 290.009ZM527.752 290.009V219.319C527.752 157.111 527.752 145.8 526.809 133.076C525.867 119.409 523.51 112.811 509.843 110.926C506.545 110.455 499.475 109.983 495.705 109.983C494.291 109.983 492.406 108.098 492.406 106.684C492.406 104.328 494.291 103.385 499.004 103.385C517.855 103.385 544.718 104.328 547.074 104.328C549.902 104.328 636.616 104.799 646.041 104.328C654.053 103.857 661.593 102.443 664.892 101.972C666.777 101.5 668.662 100.087 670.547 100.087C671.961 100.087 672.433 101.972 672.433 103.857C672.433 106.684 670.076 111.397 669.134 122.708C668.662 126.478 667.72 144.386 666.777 149.099C666.306 150.984 664.892 153.34 663.007 153.34C660.651 153.34 659.708 151.455 659.708 148.156C659.708 145.329 659.237 138.731 657.352 134.018C654.524 127.42 650.283 124.593 627.662 121.765C620.593 120.823 572.523 120.351 567.81 120.351C565.925 120.351 565.454 121.765 565.454 124.593V233.457C565.454 236.284 565.454 237.698 567.81 237.698C572.994 237.698 627.662 237.698 637.087 236.756C646.984 235.813 653.11 235.342 657.352 231.1C660.179 228.273 662.065 225.916 663.478 225.916C664.892 225.916 665.835 226.859 665.835 229.215C665.835 231.572 663.478 238.169 662.536 251.365C661.593 259.377 660.651 274.457 660.651 277.285C660.651 280.584 659.708 284.825 656.881 284.825C654.995 284.825 654.053 283.412 654.053 281.055C654.053 277.285 654.053 273.044 652.168 267.86C650.754 262.204 646.984 257.492 630.96 255.607C619.65 254.193 575.35 253.721 568.281 253.721C565.925 253.721 565.454 255.135 565.454 256.549V290.009C565.454 303.676 564.982 350.332 565.454 358.344C566.396 385.207 573.937 390.391 614.937 390.391C625.777 390.391 645.57 390.391 656.409 386.149C667.249 381.436 672.904 374.367 675.26 358.344C676.203 353.631 677.145 352.217 679.502 352.217C681.858 352.217 682.329 355.516 682.329 358.344C682.329 361.172 679.03 388.505 676.674 396.988C673.846 407.356 669.605 407.356 653.582 407.356C622.478 407.356 598.443 406.414 581.477 405.943C564.04 405 553.201 405 547.074 405C546.131 405 538.12 405 529.166 405.471C521.154 405.943 511.729 406.414 505.131 406.414C500.889 406.414 498.533 405.471 498.533 403.115C498.533 401.701 499.475 399.816 501.832 399.816C505.602 399.816 510.786 398.402 514.556 397.931C522.568 396.517 523.51 388.505 525.395 376.724C527.752 360.229 527.752 328.654 527.752 290.009ZM877.804 121.765V290.009C877.804 328.654 877.804 360.229 879.689 376.724C881.103 388.505 882.988 396.046 895.713 397.931C901.368 398.873 910.793 399.816 914.564 399.816C917.391 399.816 917.863 401.701 917.863 403.115C917.863 405 915.977 406.414 911.265 406.414C888.644 406.414 862.252 405 859.896 405C858.011 405 829.263 406.414 817.01 406.414C812.297 406.414 810.412 405.471 810.412 403.115C810.412 401.701 811.355 400.287 813.711 400.287C817.481 400.287 822.194 399.345 825.964 398.402C834.447 396.517 836.804 388.505 838.217 376.724C840.103 360.229 840.102 328.654 840.102 290.009V121.765L780.251 122.708C754.331 123.179 744.434 126.007 738.308 135.432C733.595 142.501 733.124 145.329 731.71 148.156C730.767 151.455 729.353 151.927 727.468 151.927C726.526 151.927 724.641 150.984 724.641 148.628C724.641 144.386 733.124 108.569 733.595 105.271C734.537 102.914 736.422 97.7302 737.836 97.7302C740.664 97.7302 744.905 101.029 756.216 102.443C767.998 103.857 784.021 104.328 788.734 104.328H945.196C958.863 104.328 968.289 103.385 974.886 102.443C981.013 101.5 984.783 100.558 986.668 100.558C988.553 100.558 988.553 102.914 988.553 105.271C988.553 117.524 987.14 146.271 987.14 150.984C987.14 154.283 985.255 156.168 983.369 156.168C981.484 156.168 980.542 154.754 980.07 149.099L979.599 144.857C978.185 132.604 969.231 123.65 929.644 122.708L877.804 121.765Z" fill="black"/>
<path d="M1243.35 186.3L1276.85 185.195C1278.7 185.195 1279.8 188.877 1279.8 189.982C1279.8 192.191 1275.75 198.082 1270.96 198.082C1262.86 198.082 1249.24 199.186 1238.56 199.186C1237.46 199.186 1236.35 200.291 1235.62 202.132C1223.84 239.318 1200.64 323.264 1188.86 365.605C1178.18 401.318 1161.98 409.786 1152.41 417.15C1138.79 426.723 1118.17 433.35 1111.17 433.35C1094.24 433.35 1085.03 425.618 1085.4 416.782C1085.4 411.995 1096.08 399.845 1101.23 399.845C1102.7 399.477 1105.65 400.582 1107.12 402.423C1114.12 411.627 1122.22 416.782 1131.05 416.782C1141 416.782 1152.78 410.891 1163.82 368.182C1175.6 324.368 1195.49 251.468 1210.58 202.132C1210.95 201.395 1210.58 199.186 1208.37 199.186L1185.91 199.923C1183.34 199.923 1182.23 197.714 1182.23 196.241C1182.23 191.823 1186.28 187.405 1189.23 187.405C1195.85 187.405 1208.37 187.036 1213.53 187.036C1214.63 187.036 1215.74 185.195 1216.1 184.459C1228.25 149.114 1249.61 99.7773 1277.59 81C1292.32 70.6909 1303.73 67.3773 1313.67 67.3773C1332.45 67.3773 1341.29 79.1591 1340.92 90.5727C1340.55 106.405 1328.77 115.609 1322.88 115.609C1321.04 115.609 1319.93 114.505 1319.93 111.927C1319.93 110.086 1320.3 106.405 1320.3 104.195C1320.67 90.5727 1314.78 78.0545 1304.84 78.0545C1293.79 78.0545 1284.22 83.9454 1269.86 109.35C1260.29 126.655 1248.87 158.686 1241.88 182.618C1241.51 184.091 1242.98 186.3 1243.35 186.3ZM1373.38 182.618C1395.84 182.618 1407.99 206.182 1407.99 223.855C1407.99 272.823 1374.49 314.059 1343.93 329.523C1334.73 333.941 1325.15 337.255 1313.37 337.255C1299.38 337.255 1281.34 322.895 1281.34 297.859C1281.34 275.4 1296.8 229.009 1327.73 202.132C1339.88 191.455 1355.71 182.618 1373.38 182.618ZM1370.44 192.191C1361.97 192.191 1353.5 197.345 1343.93 208.759C1326.63 228.641 1307.11 273.927 1307.11 310.745C1307.11 319.214 1311.53 326.945 1321.1 326.945C1326.99 326.945 1335.09 323.264 1345.4 310.377C1361.23 291.232 1384.06 243 1384.06 209.864C1384.06 199.555 1380.38 192.191 1370.44 192.191ZM1518.96 182.618C1520.8 182.618 1524.11 185.564 1525.22 188.509C1525.58 189.614 1524.85 194.032 1524.11 195.505C1516.75 209.495 1486.56 286.814 1483.61 298.227C1481.03 308.168 1482.51 312.586 1487.29 312.586C1502.02 312.586 1538.47 272.455 1557.25 241.159C1570.13 220.541 1579.34 203.236 1585.23 192.559C1588.17 187.405 1592.59 182.618 1595.91 182.618C1599.22 182.618 1606.58 187.405 1606.58 191.455C1606.58 194.4 1604.74 199.923 1601.8 206.55C1593.7 226.432 1574.18 273.559 1565.35 300.805C1563.51 305.959 1564.98 308.168 1568.29 308.168C1573.45 308.168 1588.54 299.7 1604.74 282.395C1607.69 279.45 1611.74 278.714 1611.74 281.291C1611.74 283.5 1610.63 285.709 1608.79 289.391C1598.48 309.641 1561.67 337.255 1546.57 337.255C1542.52 337.255 1537 330.995 1537 327.314C1537 325.473 1537.73 323.632 1538.47 321.055C1540.31 315.532 1555.04 278.345 1557.25 271.35C1559.82 263.618 1556.88 264.355 1552.46 269.509C1532.95 293.073 1502.39 317.741 1484.35 329.523C1476.25 334.677 1467.78 337.255 1463.36 337.255C1458.94 337.255 1455.26 335.045 1453.42 332.836C1451.21 330.259 1449 325.105 1451.95 317.005C1456.37 304.855 1484.35 235.268 1493.18 215.755C1495.02 212.073 1493.92 210.6 1492.08 210.6C1488.77 210.6 1472.2 222.382 1467.78 225.327C1464.1 227.905 1460.05 227.905 1459.68 225.695C1459.68 223.855 1460.78 221.645 1462.26 219.805C1467.04 210.6 1501.65 182.618 1518.96 182.618ZM1786.36 182.618C1800.35 182.618 1807.35 193.664 1807.35 203.605C1807.35 209.864 1806.24 215.018 1802.19 225.327C1794.09 247.05 1772.37 293.073 1769.05 298.964C1765.74 305.591 1766.11 308.905 1770.16 308.905C1777.52 308.905 1792.25 297.123 1803.3 286.814C1806.24 284.236 1810.66 283.5 1810.66 286.077C1810.66 289.759 1808.08 293.809 1806.24 296.755C1793.35 316.268 1758.75 337.255 1745.86 337.255C1742.55 337.255 1738.13 335.782 1734.08 330.995C1732.97 329.891 1730.4 326.577 1734.45 318.845C1737.76 312.586 1781.57 222.75 1785.25 210.968C1789.3 199.555 1785.62 194.768 1780.1 194.768C1771.26 194.768 1757.64 203.236 1738.5 226.432C1723.03 244.105 1688.79 298.964 1677.38 315.164C1667.44 330.627 1662.65 337.623 1658.6 337.623C1653.81 337.623 1648.29 330.995 1648.29 327.314C1647.55 321.791 1658.23 300.068 1659.7 296.755C1670.01 273.559 1687.69 238.214 1698.36 210.232C1700.57 205.814 1698.36 204.341 1695.05 204.341C1683.64 204.341 1675.54 212.809 1666.7 220.909C1664.86 222.75 1663.39 224.591 1661.91 224.591C1660.81 224.591 1659.7 222.382 1659.7 220.909C1659.7 210.6 1676.64 182.618 1707.57 182.618C1712.72 182.618 1718.61 185.932 1721.19 189.982C1722.3 191.823 1722.3 195.136 1720.45 199.555C1717.88 205.445 1701.31 245.209 1698 252.941C1696.52 255.886 1700.94 256.255 1702.41 253.309C1709.78 242.264 1735.55 211.336 1748.07 201.027C1763.9 187.405 1777.89 182.618 1786.36 182.618ZM1852.2 311.482C1852.2 275.768 1888.65 214.65 1929.15 191.823C1941.3 184.827 1954.56 182.618 1956.4 182.618C1961.19 182.618 1971.5 186.668 1978.12 192.559C1978.86 192.927 1981.8 192.559 1982.17 191.455C1986.59 176.359 1995.8 150.218 2008.31 103.827C2011.26 92.4136 2009.42 89.8364 2001.69 86.1545C1994.69 83.2091 1991.38 81 1991.38 79.5273C1991.38 78.4227 1995.06 75.1091 1997.27 74.7409C2004.26 72.5318 2031.51 67.3773 2039.98 67.3773C2042.19 67.3773 2042.19 73.6364 2039.98 82.4727C2033.35 106.036 2020.1 145.064 2002.79 200.291C1991.75 237.109 1979.6 276.136 1972.97 299.7C1970.76 307.064 1972.97 310.377 1977.02 310.377C1984.01 310.377 1998.74 298.595 2009.79 283.868C2012.36 280.555 2014.2 281.659 2014.2 284.973C2014.2 287.55 2013.47 289.759 2012.73 291.968C2005.74 312.586 1975.91 337.991 1958.24 337.991C1953.45 337.991 1946.83 328.418 1946.83 324C1946.83 315.164 1956.4 286.077 1960.08 274.664C1960.45 273.191 1957.87 270.614 1957.14 271.718C1930.63 311.482 1899.33 337.255 1873.56 337.255C1868.04 337.255 1861.41 335.782 1857.36 331.364C1853.68 326.945 1852.2 321.423 1852.2 311.482ZM1877.98 311.482C1877.98 317.005 1881.66 320.686 1884.97 320.686C1896.02 320.686 1922.9 303.75 1944.25 275.4C1956.77 257.727 1964.87 240.055 1969.65 226.432C1973.34 216.491 1974.07 207.286 1971.86 201.027C1970.02 197.345 1966.34 194.768 1962.29 194.768C1956.4 194.768 1943.15 198.45 1922.53 221.277C1896.39 249.995 1877.98 289.023 1877.98 311.482ZM2159.72 188.141C2162.3 188.141 2169.3 191.086 2174.45 196.609C2174.82 196.977 2176.66 196.609 2177.4 195.136C2178.87 192.191 2182.18 187.036 2183.29 184.827C2183.66 183.723 2187.34 181.514 2188.44 181.514C2191.02 181.514 2198.38 184.091 2202.43 186.668C2202.43 186.668 2203.54 188.509 2201.7 191.823C2196.54 203.605 2167.09 276.505 2160.46 301.541C2158.62 308.536 2161.93 311.482 2167.46 311.482C2174.45 311.482 2186.97 303.014 2195.07 293.809C2200.23 287.918 2202.43 289.391 2202.43 291.968C2202.43 293.441 2201.7 297.491 2199.12 301.173C2185.13 324 2163.04 337.255 2146.84 337.255C2138 337.255 2132.48 331.732 2132.11 323.632C2132.11 319.582 2140.21 300.436 2145 287.55C2146.1 285.341 2144.26 281.659 2142.42 283.5C2124.38 302.645 2086.46 337.255 2062.16 337.255C2055.9 337.255 2045.59 330.259 2045.59 323.264C2045.59 314.059 2050.74 299.7 2061.42 283.132C2081.3 250.364 2111.49 216.859 2142.42 195.505C2148.68 191.086 2157.52 188.141 2159.72 188.141ZM2153.83 207.655C2141.68 207.655 2125.12 217.595 2111.13 235.636C2097.87 251.836 2077.25 287.918 2077.25 305.591C2077.25 310.009 2080.93 316.268 2084.62 316.268C2093.82 316.268 2106.34 307.432 2121.8 290.864C2139.47 272.823 2154.94 247.05 2165.25 225.327C2167.46 219.805 2168.19 215.018 2167.09 213.914C2163.04 210.232 2156.04 207.655 2153.83 207.655ZM2324.07 145.432C2327.38 145.432 2327.75 147.273 2325.91 153.532C2324.8 157.95 2318.18 179.673 2317.07 183.723C2316.7 184.827 2317.44 187.036 2318.91 187.036C2326.64 187.036 2343.58 187.773 2353.15 188.141C2353.89 188.141 2354.63 189.614 2354.63 191.086C2354.99 193.295 2351.31 198.818 2347.26 199.186C2341.74 199.555 2320.02 200.659 2313.02 200.659C2311.92 200.659 2310.44 201.764 2309.71 203.605C2304.55 215.386 2285.04 266.195 2274.36 296.386C2272.15 302.645 2272.52 306.695 2276.2 306.695C2283.57 306.695 2305.29 291.6 2313.02 283.132C2316.33 280.186 2321.12 277.609 2321.12 282.027C2321.12 284.973 2320.02 287.55 2317.81 290.864C2303.08 311.482 2266.26 336.518 2248.96 336.518C2245.28 336.518 2239.38 330.995 2239.38 328.05C2239.38 326.209 2239.75 323.264 2241.23 318.845C2242.7 315.164 2268.1 245.945 2283.93 205.077C2285.04 202.5 2284.3 200.659 2283.2 200.659C2278.04 200.291 2268.84 199.923 2263.68 199.555C2260 199.186 2257.79 197.714 2257.79 196.241C2257.79 193.664 2262.58 188.877 2265.16 188.509C2272.52 187.773 2285.04 187.405 2287.62 187.405C2289.46 187.405 2291.3 184.827 2291.67 183.723C2297.19 173.045 2302.71 162.736 2306.76 156.109C2311.55 148.377 2316.33 145.432 2324.07 145.432ZM2434.54 182.618C2437.48 182.618 2443 188.141 2443 191.455C2443 194.768 2440.79 200.291 2439.32 203.973C2421.65 245.209 2410.24 274.664 2397.35 304.118C2396.61 305.959 2397.35 310.377 2401.4 310.377C2406.92 310.377 2426.44 295.65 2435.64 285.709C2439.32 281.659 2442.27 278.714 2444.11 278.714C2444.84 278.714 2445.95 279.45 2445.95 280.923C2445.95 284.236 2443.37 289.391 2439.32 294.177C2422.75 313.323 2391.46 337.255 2376.36 337.255C2370.84 337.255 2365.32 331.732 2365.32 328.05C2365.32 326.209 2365.69 324.736 2367.16 321.423C2380.41 288.655 2395.51 252.941 2412.81 212.809C2414.29 209.495 2411.71 206.918 2409.87 207.655C2401.77 210.232 2392.56 215.018 2382.62 223.855C2380.78 225.695 2377.84 224.959 2377.84 222.75C2377.84 220.173 2380.05 216.491 2382.62 213.545C2389.99 204.709 2421.65 182.618 2434.54 182.618ZM2443.74 108.614C2451.84 108.614 2456.99 115.977 2456.99 123.341C2456.99 133.282 2448.16 143.223 2440.06 143.223C2438.22 143.223 2436.38 142.855 2434.54 142.118C2430.12 139.541 2426.44 134.755 2426.44 128.495C2426.44 121.868 2430.12 116.345 2433.8 113.032C2437.48 110.086 2441.16 108.614 2443.74 108.614ZM2577.97 182.618C2600.43 182.618 2612.58 206.182 2612.58 223.855C2612.58 272.823 2579.08 314.059 2548.52 329.523C2539.31 333.941 2529.74 337.255 2517.96 337.255C2503.97 337.255 2485.93 322.895 2485.93 297.859C2485.93 275.4 2501.39 229.009 2532.32 202.132C2544.47 191.455 2560.3 182.618 2577.97 182.618ZM2575.03 192.191C2566.56 192.191 2558.09 197.345 2548.52 208.759C2531.21 228.641 2511.7 273.927 2511.7 310.745C2511.7 319.214 2516.12 326.945 2525.69 326.945C2531.58 326.945 2539.68 323.264 2549.99 310.377C2565.82 291.232 2588.65 243 2588.65 209.864C2588.65 199.555 2584.97 192.191 2575.03 192.191ZM2789.48 182.618C2803.47 182.618 2810.46 193.664 2810.46 203.605C2810.46 209.864 2809.36 215.018 2805.31 225.327C2797.21 247.05 2775.49 293.073 2772.17 298.964C2768.86 305.591 2769.23 308.905 2773.28 308.905C2780.64 308.905 2795.37 297.123 2806.41 286.814C2809.36 284.236 2813.78 283.5 2813.78 286.077C2813.78 289.759 2811.2 293.809 2809.36 296.755C2796.47 316.268 2761.86 337.255 2748.98 337.255C2745.66 337.255 2741.25 335.782 2737.2 330.995C2736.09 329.891 2733.51 326.577 2737.56 318.845C2740.88 312.586 2784.69 222.75 2788.37 210.968C2792.42 199.555 2788.74 194.768 2783.22 194.768C2774.38 194.768 2760.76 203.236 2741.61 226.432C2726.15 244.105 2691.91 298.964 2680.5 315.164C2670.56 330.627 2665.77 337.623 2661.72 337.623C2656.93 337.623 2651.41 330.995 2651.41 327.314C2650.67 321.791 2661.35 300.068 2662.82 296.755C2673.13 273.559 2690.81 238.214 2701.48 210.232C2703.69 205.814 2701.48 204.341 2698.17 204.341C2686.76 204.341 2678.66 212.809 2669.82 220.909C2667.98 222.75 2666.51 224.591 2665.03 224.591C2663.93 224.591 2662.82 222.382 2662.82 220.909C2662.82 210.6 2679.76 182.618 2710.69 182.618C2715.84 182.618 2721.73 185.932 2724.31 189.982C2725.41 191.823 2725.41 195.136 2723.57 199.555C2721 205.445 2704.43 245.209 2701.11 252.941C2699.64 255.886 2704.06 256.255 2705.53 253.309C2712.9 242.264 2738.67 211.336 2751.19 201.027C2767.02 187.405 2781.01 182.618 2789.48 182.618Z" fill="black"/>
</svg>
