<svg width="385" height="77" viewBox="0 0 385 77" fill="none" xmlns="http://www.w3.org/2000/svg">
<path d="M16.768 25.368V40.728C16.768 51.096 16.768 55.064 14.848 59.608C13.504 62.808 10.688 65.816 5.504 69.4C4.672 69.976 3.648 70.68 3.008 71C2.88 71.064 2.752 71.128 2.56 71.128C2.368 71.128 2.112 71 2.112 70.744C2.112 70.36 2.432 70.168 3.008 69.784C3.776 69.336 4.672 68.568 5.248 67.992C9.408 63.768 11.392 60.376 11.392 43.864V25.368C11.392 15.384 11.392 13.592 11.264 11.544C11.136 9.368 10.624 8.344 8.512 7.896C8 7.768 6.912 7.704 6.336 7.704C6.08 7.704 5.824 7.576 5.824 7.32C5.824 6.936 6.144 6.808 6.848 6.808C9.728 6.808 13.76 7 14.08 7C14.4 7 18.432 6.808 20.352 6.808C21.056 6.808 21.376 6.936 21.376 7.32C21.376 7.576 21.12 7.704 20.864 7.704C20.416 7.704 20.032 7.768 19.264 7.896C17.536 8.216 17.024 9.304 16.896 11.544C16.768 13.592 16.768 15.384 16.768 25.368ZM36.42 39.384V29.784C36.42 21.336 36.42 19.8 36.292 18.072C36.164 16.216 35.844 15.32 33.988 15.064C33.54 15 32.58 14.936 32.068 14.936C31.876 14.936 31.62 14.68 31.62 14.488C31.62 14.168 31.876 14.04 32.516 14.04C35.076 14.04 38.724 14.168 39.044 14.168C39.428 14.168 51.204 14.232 52.484 14.168C53.572 14.104 54.596 13.912 55.044 13.848C55.3 13.784 55.556 13.592 55.812 13.592C56.004 13.592 56.068 13.848 56.068 14.104C56.068 14.488 55.748 15.128 55.62 16.664C55.556 17.176 55.428 19.608 55.3 20.248C55.236 20.504 55.044 20.824 54.788 20.824C54.468 20.824 54.34 20.568 54.34 20.12C54.34 19.736 54.276 18.84 54.02 18.2C53.636 17.304 53.06 16.92 49.988 16.536C49.028 16.408 42.5 16.344 41.86 16.344C41.604 16.344 41.54 16.536 41.54 16.92V31.704C41.54 32.088 41.54 32.28 41.86 32.28C42.564 32.28 49.988 32.28 51.268 32.152C52.612 32.024 53.444 31.96 54.02 31.384C54.404 31 54.66 30.68 54.852 30.68C55.044 30.68 55.172 30.808 55.172 31.128C55.172 31.448 54.852 32.344 54.724 34.136C54.596 35.224 54.468 37.272 54.468 37.656C54.468 38.104 54.34 38.68 53.956 38.68C53.7 38.68 53.572 38.488 53.572 38.168C53.572 37.656 53.572 37.08 53.316 36.376C53.124 35.608 52.612 34.968 50.436 34.712C48.9 34.52 42.884 34.456 41.924 34.456C41.604 34.456 41.54 34.648 41.54 34.84V39.384C41.54 41.24 41.476 47.576 41.54 48.664C41.668 52.312 42.692 53.016 48.26 53.016C49.732 53.016 52.42 53.016 53.892 52.44C55.364 51.8 56.132 50.84 56.452 48.664C56.58 48.024 56.708 47.832 57.028 47.832C57.348 47.832 57.412 48.28 57.412 48.664C57.412 49.048 56.964 52.76 56.644 53.912C56.26 55.32 55.684 55.32 53.508 55.32C49.284 55.32 46.02 55.192 43.716 55.128C41.348 55 39.876 55 39.044 55C38.916 55 37.828 55 36.612 55.064C35.524 55.128 34.244 55.192 33.348 55.192C32.772 55.192 32.452 55.064 32.452 54.744C32.452 54.552 32.58 54.296 32.9 54.296C33.412 54.296 34.116 54.104 34.628 54.04C35.716 53.848 35.844 52.76 36.1 51.16C36.42 48.92 36.42 44.632 36.42 39.384ZM71.67 39.384V29.784C71.67 21.336 71.67 19.8 71.542 18.072C71.414 16.216 71.094 15.32 69.238 15.064C68.79 15 67.83 14.936 67.318 14.936C67.126 14.936 66.87 14.68 66.87 14.488C66.87 14.168 67.126 14.04 67.766 14.04C70.326 14.04 73.974 14.168 74.294 14.168C74.678 14.168 86.454 14.232 87.734 14.168C88.822 14.104 89.846 13.912 90.294 13.848C90.55 13.784 90.806 13.592 91.062 13.592C91.254 13.592 91.318 13.848 91.318 14.104C91.318 14.488 90.998 15.128 90.87 16.664C90.806 17.176 90.678 19.608 90.55 20.248C90.486 20.504 90.294 20.824 90.038 20.824C89.718 20.824 89.59 20.568 89.59 20.12C89.59 19.736 89.526 18.84 89.27 18.2C88.886 17.304 88.31 16.92 85.238 16.536C84.278 16.408 77.75 16.344 77.11 16.344C76.854 16.344 76.79 16.536 76.79 16.92V31.704C76.79 32.088 76.79 32.28 77.11 32.28C77.814 32.28 85.238 32.28 86.518 32.152C87.862 32.024 88.694 31.96 89.27 31.384C89.654 31 89.91 30.68 90.102 30.68C90.294 30.68 90.422 30.808 90.422 31.128C90.422 31.448 90.102 32.344 89.974 34.136C89.846 35.224 89.718 37.272 89.718 37.656C89.718 38.104 89.59 38.68 89.206 38.68C88.95 38.68 88.822 38.488 88.822 38.168C88.822 37.656 88.822 37.08 88.566 36.376C88.374 35.608 87.862 34.968 85.686 34.712C84.15 34.52 78.134 34.456 77.174 34.456C76.854 34.456 76.79 34.648 76.79 34.84V39.384C76.79 41.24 76.726 47.576 76.79 48.664C76.918 52.312 77.942 53.016 83.51 53.016C84.982 53.016 87.67 53.016 89.142 52.44C90.614 51.8 91.382 50.84 91.702 48.664C91.83 48.024 91.958 47.832 92.278 47.832C92.598 47.832 92.662 48.28 92.662 48.664C92.662 49.048 92.214 52.76 91.894 53.912C91.51 55.32 90.934 55.32 88.758 55.32C84.534 55.32 81.27 55.192 78.966 55.128C76.598 55 75.126 55 74.294 55C74.166 55 73.078 55 71.862 55.064C70.774 55.128 69.494 55.192 68.598 55.192C68.022 55.192 67.702 55.064 67.702 54.744C67.702 54.552 67.83 54.296 68.15 54.296C68.662 54.296 69.366 54.104 69.878 54.04C70.966 53.848 71.094 52.76 71.35 51.16C71.67 48.92 71.67 44.632 71.67 39.384ZM119.208 16.536V39.384C119.208 44.632 119.208 48.92 119.464 51.16C119.656 52.76 119.912 53.784 121.64 54.04C122.408 54.168 123.688 54.296 124.2 54.296C124.584 54.296 124.648 54.552 124.648 54.744C124.648 55 124.392 55.192 123.752 55.192C120.68 55.192 117.096 55 116.776 55C116.52 55 112.616 55.192 110.952 55.192C110.312 55.192 110.056 55.064 110.056 54.744C110.056 54.552 110.184 54.36 110.504 54.36C111.016 54.36 111.656 54.232 112.168 54.104C113.32 53.848 113.64 52.76 113.832 51.16C114.088 48.92 114.088 44.632 114.088 39.384V16.536L105.96 16.664C102.44 16.728 101.096 17.112 100.264 18.392C99.624 19.352 99.56 19.736 99.368 20.12C99.24 20.568 99.048 20.632 98.792 20.632C98.664 20.632 98.408 20.504 98.408 20.184C98.408 19.608 99.56 14.744 99.624 14.296C99.752 13.976 100.008 13.272 100.2 13.272C100.584 13.272 101.16 13.72 102.696 13.912C104.296 14.104 106.472 14.168 107.112 14.168H128.36C130.216 14.168 131.496 14.04 132.392 13.912C133.224 13.784 133.736 13.656 133.992 13.656C134.248 13.656 134.248 13.976 134.248 14.296C134.248 15.96 134.056 19.864 134.056 20.504C134.056 20.952 133.8 21.208 133.544 21.208C133.288 21.208 133.16 21.016 133.096 20.248L133.032 19.672C132.84 18.008 131.624 16.792 126.248 16.664L119.208 16.536Z" fill="black"/>
<path d="M168.85 25.3L173.4 25.15C173.65 25.15 173.8 25.65 173.8 25.8C173.8 26.1 173.25 26.9 172.6 26.9C171.5 26.9 169.65 27.05 168.2 27.05C168.05 27.05 167.9 27.2 167.8 27.45C166.2 32.5 163.05 43.9 161.45 49.65C160 54.5 157.8 55.65 156.5 56.65C154.65 57.95 151.85 58.85 150.9 58.85C148.6 58.85 147.35 57.8 147.4 56.6C147.4 55.95 148.85 54.3 149.55 54.3C149.75 54.25 150.15 54.4 150.35 54.65C151.3 55.9 152.4 56.6 153.6 56.6C154.95 56.6 156.55 55.8 158.05 50C159.65 44.05 162.35 34.15 164.4 27.45C164.45 27.35 164.4 27.05 164.1 27.05L161.05 27.15C160.7 27.15 160.55 26.85 160.55 26.65C160.55 26.05 161.1 25.45 161.5 25.45C162.4 25.45 164.1 25.4 164.8 25.4C164.95 25.4 165.1 25.15 165.15 25.05C166.8 20.25 169.7 13.55 173.5 11C175.5 9.6 177.05 9.15 178.4 9.15C180.95 9.15 182.15 10.75 182.1 12.3C182.05 14.45 180.45 15.7 179.65 15.7C179.4 15.7 179.25 15.55 179.25 15.2C179.25 14.95 179.3 14.45 179.3 14.15C179.35 12.3 178.55 10.6 177.2 10.6C175.7 10.6 174.4 11.4 172.45 14.85C171.15 17.2 169.6 21.55 168.65 24.8C168.6 25 168.8 25.3 168.85 25.3ZM186.509 24.8C189.559 24.8 191.209 28 191.209 30.4C191.209 37.05 186.659 42.65 182.509 44.75C181.259 45.35 179.959 45.8 178.359 45.8C176.459 45.8 174.009 43.85 174.009 40.45C174.009 37.4 176.109 31.1 180.309 27.45C181.959 26 184.109 24.8 186.509 24.8ZM186.109 26.1C184.959 26.1 183.809 26.8 182.509 28.35C180.159 31.05 177.509 37.2 177.509 42.2C177.509 43.35 178.109 44.4 179.409 44.4C180.209 44.4 181.309 43.9 182.709 42.15C184.859 39.55 187.959 33 187.959 28.5C187.959 27.1 187.459 26.1 186.109 26.1ZM206.278 24.8C206.528 24.8 206.978 25.2 207.128 25.6C207.178 25.75 207.078 26.35 206.978 26.55C205.978 28.45 201.878 38.95 201.478 40.5C201.128 41.85 201.328 42.45 201.978 42.45C203.978 42.45 208.928 37 211.478 32.75C213.228 29.95 214.478 27.6 215.278 26.15C215.678 25.45 216.278 24.8 216.728 24.8C217.178 24.8 218.178 25.45 218.178 26C218.178 26.4 217.928 27.15 217.528 28.05C216.428 30.75 213.778 37.15 212.578 40.85C212.328 41.55 212.528 41.85 212.978 41.85C213.678 41.85 215.728 40.7 217.928 38.35C218.328 37.95 218.878 37.85 218.878 38.2C218.878 38.5 218.728 38.8 218.478 39.3C217.078 42.05 212.078 45.8 210.028 45.8C209.478 45.8 208.728 44.95 208.728 44.45C208.728 44.2 208.828 43.95 208.928 43.6C209.178 42.85 211.178 37.8 211.478 36.85C211.828 35.8 211.428 35.9 210.828 36.6C208.178 39.8 204.028 43.15 201.578 44.75C200.478 45.45 199.328 45.8 198.728 45.8C198.128 45.8 197.628 45.5 197.378 45.2C197.078 44.85 196.778 44.15 197.178 43.05C197.778 41.4 201.578 31.95 202.778 29.3C203.028 28.8 202.878 28.6 202.628 28.6C202.178 28.6 199.928 30.2 199.328 30.6C198.828 30.95 198.278 30.95 198.228 30.65C198.228 30.4 198.378 30.1 198.578 29.85C199.228 28.6 203.928 24.8 206.278 24.8ZM242.592 24.8C244.492 24.8 245.442 26.3 245.442 27.65C245.442 28.5 245.292 29.2 244.742 30.6C243.642 33.55 240.692 39.8 240.242 40.6C239.792 41.5 239.842 41.95 240.392 41.95C241.392 41.95 243.392 40.35 244.892 38.95C245.292 38.6 245.892 38.5 245.892 38.85C245.892 39.35 245.542 39.9 245.292 40.3C243.542 42.95 238.842 45.8 237.092 45.8C236.642 45.8 236.042 45.6 235.492 44.95C235.342 44.8 234.992 44.35 235.542 43.3C235.992 42.45 241.942 30.25 242.442 28.65C242.992 27.1 242.492 26.45 241.742 26.45C240.542 26.45 238.692 27.6 236.092 30.75C233.992 33.15 229.342 40.6 227.792 42.8C226.442 44.9 225.792 45.85 225.242 45.85C224.592 45.85 223.842 44.95 223.842 44.45C223.742 43.7 225.192 40.75 225.392 40.3C226.792 37.15 229.192 32.35 230.642 28.55C230.942 27.95 230.642 27.75 230.192 27.75C228.642 27.75 227.542 28.9 226.342 30C226.092 30.25 225.892 30.5 225.692 30.5C225.542 30.5 225.392 30.2 225.392 30C225.392 28.6 227.692 24.8 231.892 24.8C232.592 24.8 233.392 25.25 233.742 25.8C233.892 26.05 233.892 26.5 233.642 27.1C233.292 27.9 231.042 33.3 230.592 34.35C230.392 34.75 230.992 34.8 231.192 34.4C232.192 32.9 235.692 28.7 237.392 27.3C239.542 25.45 241.442 24.8 242.592 24.8ZM251.534 42.3C251.534 37.45 256.484 29.15 261.984 26.05C263.634 25.1 265.434 24.8 265.684 24.8C266.334 24.8 267.734 25.35 268.634 26.15C268.734 26.2 269.134 26.15 269.184 26C269.784 23.95 271.034 20.4 272.734 14.1C273.134 12.55 272.884 12.2 271.834 11.7C270.884 11.3 270.434 11 270.434 10.8C270.434 10.65 270.934 10.2 271.234 10.15C272.184 9.85 275.884 9.15 277.034 9.15C277.334 9.15 277.334 10 277.034 11.2C276.134 14.4 274.334 19.7 271.984 27.2C270.484 32.2 268.834 37.5 267.934 40.7C267.634 41.7 267.934 42.15 268.484 42.15C269.434 42.15 271.434 40.55 272.934 38.55C273.284 38.1 273.534 38.25 273.534 38.7C273.534 39.05 273.434 39.35 273.334 39.65C272.384 42.45 268.334 45.9 265.934 45.9C265.284 45.9 264.384 44.6 264.384 44C264.384 42.8 265.684 38.85 266.184 37.3C266.234 37.1 265.884 36.75 265.784 36.9C262.184 42.3 257.934 45.8 254.434 45.8C253.684 45.8 252.784 45.6 252.234 45C251.734 44.4 251.534 43.65 251.534 42.3ZM255.034 42.3C255.034 43.05 255.534 43.55 255.984 43.55C257.484 43.55 261.134 41.25 264.034 37.4C265.734 35 266.834 32.6 267.484 30.75C267.984 29.4 268.084 28.15 267.784 27.3C267.534 26.8 267.034 26.45 266.484 26.45C265.684 26.45 263.884 26.95 261.084 30.05C257.534 33.95 255.034 39.25 255.034 42.3ZM293.296 25.55C293.646 25.55 294.596 25.95 295.296 26.7C295.346 26.75 295.596 26.7 295.696 26.5C295.896 26.1 296.346 25.4 296.496 25.1C296.546 24.95 297.046 24.65 297.196 24.65C297.546 24.65 298.546 25 299.096 25.35C299.096 25.35 299.246 25.6 298.996 26.05C298.296 27.65 294.296 37.55 293.396 40.95C293.146 41.9 293.596 42.3 294.346 42.3C295.296 42.3 296.996 41.15 298.096 39.9C298.796 39.1 299.096 39.3 299.096 39.65C299.096 39.85 298.996 40.4 298.646 40.9C296.746 44 293.746 45.8 291.546 45.8C290.346 45.8 289.596 45.05 289.546 43.95C289.546 43.4 290.646 40.8 291.296 39.05C291.446 38.75 291.196 38.25 290.946 38.5C288.496 41.1 283.346 45.8 280.046 45.8C279.196 45.8 277.796 44.85 277.796 43.9C277.796 42.65 278.496 40.7 279.946 38.45C282.646 34 286.746 29.45 290.946 26.55C291.796 25.95 292.996 25.55 293.296 25.55ZM292.496 28.2C290.846 28.2 288.596 29.55 286.696 32C284.896 34.2 282.096 39.1 282.096 41.5C282.096 42.1 282.596 42.95 283.096 42.95C284.346 42.95 286.046 41.75 288.146 39.5C290.546 37.05 292.646 33.55 294.046 30.6C294.346 29.85 294.446 29.2 294.296 29.05C293.746 28.55 292.796 28.2 292.496 28.2ZM315.614 19.75C316.064 19.75 316.114 20 315.864 20.85C315.714 21.45 314.814 24.4 314.664 24.95C314.614 25.1 314.714 25.4 314.914 25.4C315.964 25.4 318.264 25.5 319.564 25.55C319.664 25.55 319.764 25.75 319.764 25.95C319.814 26.25 319.314 27 318.764 27.05C318.014 27.1 315.064 27.25 314.114 27.25C313.964 27.25 313.764 27.4 313.664 27.65C312.964 29.25 310.314 36.15 308.864 40.25C308.564 41.1 308.614 41.65 309.114 41.65C310.114 41.65 313.064 39.6 314.114 38.45C314.564 38.05 315.214 37.7 315.214 38.3C315.214 38.7 315.064 39.05 314.764 39.5C312.764 42.3 307.764 45.7 305.414 45.7C304.914 45.7 304.114 44.95 304.114 44.55C304.114 44.3 304.164 43.9 304.364 43.3C304.564 42.8 308.014 33.4 310.164 27.85C310.314 27.5 310.214 27.25 310.064 27.25C309.364 27.2 308.114 27.15 307.414 27.1C306.914 27.05 306.614 26.85 306.614 26.65C306.614 26.3 307.264 25.65 307.614 25.6C308.614 25.5 310.314 25.45 310.664 25.45C310.914 25.45 311.164 25.1 311.214 24.95C311.964 23.5 312.714 22.1 313.264 21.2C313.914 20.15 314.564 19.75 315.614 19.75ZM330.616 24.8C331.016 24.8 331.766 25.55 331.766 26C331.766 26.45 331.466 27.2 331.266 27.7C328.866 33.3 327.316 37.3 325.566 41.3C325.466 41.55 325.566 42.15 326.116 42.15C326.866 42.15 329.516 40.15 330.766 38.8C331.266 38.25 331.666 37.85 331.916 37.85C332.016 37.85 332.166 37.95 332.166 38.15C332.166 38.6 331.816 39.3 331.266 39.95C329.016 42.55 324.766 45.8 322.716 45.8C321.966 45.8 321.216 45.05 321.216 44.55C321.216 44.3 321.266 44.1 321.466 43.65C323.266 39.2 325.316 34.35 327.666 28.9C327.866 28.45 327.516 28.1 327.266 28.2C326.166 28.55 324.916 29.2 323.566 30.4C323.316 30.65 322.916 30.55 322.916 30.25C322.916 29.9 323.216 29.4 323.566 29C324.566 27.8 328.866 24.8 330.616 24.8ZM331.866 14.75C332.966 14.75 333.666 15.75 333.666 16.75C333.666 18.1 332.466 19.45 331.366 19.45C331.116 19.45 330.866 19.4 330.616 19.3C330.016 18.95 329.516 18.3 329.516 17.45C329.516 16.55 330.016 15.8 330.516 15.35C331.016 14.95 331.516 14.75 331.866 14.75ZM350.095 24.8C353.145 24.8 354.795 28 354.795 30.4C354.795 37.05 350.245 42.65 346.095 44.75C344.845 45.35 343.545 45.8 341.945 45.8C340.045 45.8 337.595 43.85 337.595 40.45C337.595 37.4 339.695 31.1 343.895 27.45C345.545 26 347.695 24.8 350.095 24.8ZM349.695 26.1C348.545 26.1 347.395 26.8 346.095 28.35C343.745 31.05 341.095 37.2 341.095 42.2C341.095 43.35 341.695 44.4 342.995 44.4C343.795 44.4 344.895 43.9 346.295 42.15C348.445 39.55 351.545 33 351.545 28.5C351.545 27.1 351.045 26.1 349.695 26.1ZM378.818 24.8C380.718 24.8 381.668 26.3 381.668 27.65C381.668 28.5 381.518 29.2 380.968 30.6C379.868 33.55 376.918 39.8 376.468 40.6C376.018 41.5 376.068 41.95 376.618 41.95C377.618 41.95 379.618 40.35 381.118 38.95C381.518 38.6 382.118 38.5 382.118 38.85C382.118 39.35 381.768 39.9 381.518 40.3C379.768 42.95 375.068 45.8 373.318 45.8C372.868 45.8 372.268 45.6 371.718 44.95C371.568 44.8 371.218 44.35 371.768 43.3C372.218 42.45 378.168 30.25 378.668 28.65C379.218 27.1 378.718 26.45 377.968 26.45C376.768 26.45 374.918 27.6 372.318 30.75C370.218 33.15 365.568 40.6 364.018 42.8C362.668 44.9 362.018 45.85 361.468 45.85C360.818 45.85 360.068 44.95 360.068 44.45C359.968 43.7 361.418 40.75 361.618 40.3C363.018 37.15 365.418 32.35 366.868 28.55C367.168 27.95 366.868 27.75 366.418 27.75C364.868 27.75 363.768 28.9 362.568 30C362.318 30.25 362.118 30.5 361.918 30.5C361.768 30.5 361.618 30.2 361.618 30C361.618 28.6 363.918 24.8 368.118 24.8C368.818 24.8 369.618 25.25 369.968 25.8C370.118 26.05 370.118 26.5 369.868 27.1C369.518 27.9 367.268 33.3 366.818 34.35C366.618 34.75 367.218 34.8 367.418 34.4C368.418 32.9 371.918 28.7 373.618 27.3C375.768 25.45 377.668 24.8 378.818 24.8Z" fill="black"/>
</svg>
