<?xml version="1.0" encoding="UTF-8"?><!DOCTYPE svg PUBLIC "-//W3C//DTD SVG 1.1//EN" "http://www.w3.org/Graphics/SVG/1.1/DTD/svg11.dtd"><svg xmlns="http://www.w3.org/2000/svg" xmlns:xlink="http://www.w3.org/1999/xlink"><symbol id="arrow-left" viewBox="0 0 24 24">
<path d="M18 13V11H9.83L9.12 10.29L12.71 6.71001L11.29 5.29001L5.29 11.29C5.19627 11.383 5.12188 11.4936 5.07111 11.6154C5.02034 11.7373 4.9942 11.868 4.9942 12C4.9942 12.132 5.02034 12.2627 5.07111 12.3846C5.12188 12.5064 5.19627 12.617 5.29 12.71L11.29 18.71L12.71 17.29L9.12 13.71L9.83 13H18Z" fill="currentColor"/>
</symbol><symbol id="arrow-long-left" viewBox="0 0 46 22"><g stroke="currentColor" stroke-width="2" fill="none" fill-rule="evenodd"><path d="M46 11H2.3M11.4 21l-9.2-9.9 9.2-9.8"/></g></symbol><symbol id="arrow-long-right" viewBox="0 0 47 22"><g stroke="currentColor" stroke-width="2" fill="none" fill-rule="evenodd"><path d="M0 11h44.7M35.6 1l9.2 9.9-9.2 9.8"/></g></symbol><symbol id="arrow-right" viewBox="0 0 24 24">
<path d="M6 13V11H14.17L14.88 10.29L11.29 6.71001L12.71 5.29001L18.71 11.29C18.8037 11.383 18.8781 11.4936 18.9289 11.6154C18.9797 11.7373 19.0058 11.868 19.0058 12C19.0058 12.132 18.9797 12.2627 18.9289 12.3846C18.8781 12.5064 18.8037 12.617 18.71 12.71L12.71 18.71L11.29 17.29L14.88 13.71L14.17 13H6Z" fill="currentColor"/>
</symbol><symbol id="chevron-down" viewBox="0 0 24 24">
<path d="M18.71 9.71L12.71 15.71C12.617 15.8037 12.5064 15.8781 12.3846 15.9289C12.2627 15.9797 12.132 16.0058 12 16.0058C11.868 16.0058 11.7373 15.9797 11.6154 15.9289C11.4936 15.8781 11.383 15.8037 11.29 15.71L5.29001 9.71L6.71001 8.29L12 13.59L17.29 8.29L18.71 9.71Z" fill="currentColor"/>
</symbol><symbol id="chevron-left" viewBox="0 0 24 24">
<path d="M14.29 18.71L8.29 12.71C8.19627 12.617 8.12188 12.5064 8.07111 12.3846C8.02034 12.2627 7.9942 12.132 7.9942 12C7.9942 11.868 8.02034 11.7373 8.07111 11.6154C8.12188 11.4936 8.19627 11.383 8.29 11.29L14.29 5.28999L15.71 6.70999L10.41 12L15.71 17.29L14.29 18.71Z" fill="currentColor"/>
</symbol><symbol id="chevron-right" viewBox="0 0 24 24">
<path d="M9.71 18.71L15.71 12.71C15.8037 12.617 15.8781 12.5064 15.9289 12.3846C15.9797 12.2627 16.0058 12.132 16.0058 12C16.0058 11.868 15.9797 11.7373 15.9289 11.6154C15.8781 11.4936 15.8037 11.383 15.71 11.29L9.71 5.28999L8.29 6.70999L13.59 12L8.29 17.29L9.71 18.71Z" fill="currentColor"/>
</symbol><symbol id="close" viewBox="0 0 24 24">
<path d="M17.6569 7.75792L16.2427 6.3437L6.34318 16.2432L7.75739 17.6574L17.6569 7.75792Z" fill="currentColor"/>
<path d="M16.242 17.6568L17.6562 16.2426L7.75676 6.34314L6.34254 7.75735L16.242 17.6568Z" fill="currentColor"/>
<path d="M14 14V10H10V14H14Z" fill="currentColor"/>
</symbol><symbol id="dots" viewBox="0 0 24 24">
<path d="M12 13C12.8284 13 13.5 12.3284 13.5 11.5C13.5 10.6716 12.8284 10 12 10C11.1716 10 10.5 10.6716 10.5 11.5C10.5 12.3284 11.1716 13 12 13Z" fill="currentColor"/>
<path d="M18.5 13C19.3284 13 20 12.3284 20 11.5C20 10.6716 19.3284 10 18.5 10C17.6716 10 17 10.6716 17 11.5C17 12.3284 17.6716 13 18.5 13Z" fill="currentColor"/>
<path d="M5.5 13C6.32843 13 7 12.3284 7 11.5C7 10.6716 6.32843 10 5.5 10C4.67157 10 4 10.6716 4 11.5C4 12.3284 4.67157 13 5.5 13Z" fill="currentColor"/>
</symbol><symbol id="download" viewBox="0 0 24 24">
<path d="M12 15C12.1316 15.0008 12.262 14.9755 12.3839 14.9258C12.5057 14.876 12.6165 14.8027 12.71 14.71L17.71 9.71L16.29 8.29L13.71 10.88L13 10.17V4H11V10.17L10.29 10.88L7.70998 8.29L6.28998 9.71L11.29 14.71C11.3834 14.8027 11.4942 14.876 11.6161 14.9258C11.7379 14.9755 11.8684 15.0008 12 15Z" fill="currentColor"/>
<path d="M17 16V18H7V16H5V19C5 19.2652 5.10536 19.5196 5.29289 19.7071C5.48043 19.8946 5.73478 20 6 20H18C18.2652 20 18.5196 19.8946 18.7071 19.7071C18.8946 19.5196 19 19.2652 19 19V16H17Z" fill="currentColor"/>
</symbol><symbol id="external" viewBox="0 0 24 24">
<path d="M17 18H7V8H9V6H6C5.73478 6 5.48043 6.10536 5.29289 6.29289C5.10536 6.48043 5 6.73478 5 7V19C5 19.2652 5.10536 19.5196 5.29289 19.7071C5.48043 19.8946 5.73478 20 6 20H18C18.2652 20 18.5196 19.8946 18.7071 19.7071C18.8946 19.5196 19 19.2652 19 19V16H17V18Z" fill="currentColor"/>
<path d="M19 5H12V7H16V7.6L11.8 11.8L13.2 13.2L17.4 9H18V13H20V6C20 5.73478 19.8946 5.48043 19.7071 5.29289C19.5196 5.10536 19.2652 5 19 5Z" fill="currentColor"/>
</symbol><symbol id="noun-circle" viewBox="0 0 24 24">
    <title>6900ECC4-1912-4724-A4A1-EB5D3AE01C97@1.00x</title>
    <g id="04-Atoms">
        <g id="Atoms-/-Icon-/-Media-/-Interactives">
            <g id="noun_Circle_2197547">
                <path d="M12.0413318,20.8105626 C12.8973415,20.8105626 13.5912744,21.5044955 13.5912744,22.3605052 C13.5912744,23.2165148 12.8973415,23.9104478 12.0413318,23.9104478 C11.1853221,23.9104478 10.4913892,23.2165148 10.4913892,22.3605052 C10.4913892,21.5044955 11.1853221,20.8105626 12.0413318,20.8105626 Z M5.54221779,20.2042731 C5.97022262,19.462947 6.91815264,19.2089499 7.65947875,19.6369547 C8.40080486,20.0649596 8.65480194,21.0128896 8.22679711,21.7542157 C7.79879229,22.4955418 6.85086227,22.7495389 6.10953616,22.3215341 C5.36821005,21.8935292 5.11421296,20.9455992 5.54221779,20.2042731 Z M16.4247009,19.6363625 C17.166027,19.2083576 18.113957,19.4623547 18.5419618,20.2036808 C18.9699667,20.9450069 18.7159696,21.8929369 17.9746435,22.3209418 C17.2333174,22.7489466 16.2853873,22.4949495 15.8573825,21.7536234 C15.4293777,21.0122973 15.6833748,20.0643673 16.4247009,19.6363625 Z M2.36700344,15.9429162 C3.11173185,15.5149114 4.06241997,15.7716665 4.4904248,16.5163949 C4.91842963,17.2611234 4.66167444,18.2118115 3.91694604,18.6398163 C3.17221764,19.0678211 2.22152951,18.8110659 1.79352468,18.0663375 C1.36551986,17.3216091 1.62227504,16.370921 2.36700344,15.9429162 Z M19.6323538,16.4231849 C20.0603586,15.6818587 21.0082887,15.4278617 21.7496148,15.8558665 C22.4909409,16.2838713 22.744938,17.2318013 22.3169331,17.9731274 C21.8889283,18.7144536 20.9409983,18.9684506 20.1996722,18.5404458 C19.4583461,18.112441 19.204349,17.164511 19.6323538,16.4231849 Z M12.0413318,10.4913892 C12.8973415,10.4913892 13.5912744,11.1853221 13.5912744,12.0413318 C13.5912744,12.8973415 12.8973415,13.5912744 12.0413318,13.5912744 C11.1853221,13.5912744 10.4913892,12.8973415 10.4913892,12.0413318 C10.4913892,11.1853221 11.1853221,10.4913892 12.0413318,10.4913892 Z M1.72215844,10.4913892 C2.5781681,10.4913892 3.27210103,11.1853221 3.27210103,12.0413318 C3.27210103,12.8973415 2.5781681,13.5912744 1.72215844,13.5912744 C0.86614878,13.5912744 0.172215844,12.8973415 0.172215844,12.0413318 C0.172215844,11.1853221 0.86614878,10.4913892 1.72215844,10.4913892 Z M22.3605052,10.4913892 C23.2165148,10.4913892 23.9104478,11.1853221 23.9104478,12.0413318 C23.9104478,12.8973415 23.2165148,13.5912744 22.3605052,13.5912744 C21.5044955,13.5912744 20.8105626,12.8973415 20.8105626,12.0413318 C20.8105626,11.1853221 21.5044955,10.4913892 22.3605052,10.4913892 Z M20.2036808,5.54298948 C20.9450069,5.11498465 21.8929369,5.36898174 22.3209418,6.11030785 C22.7489466,6.85163396 22.4949495,7.79956398 21.7536234,8.22756881 C21.0122973,8.65557363 20.0643673,8.40157655 19.6363625,7.66025044 C19.2083576,6.91892433 19.4623547,5.97099431 20.2036808,5.54298948 Z M1.76112955,6.10724844 C2.18913438,5.36592233 3.1370644,5.11192525 3.87839051,5.53993008 C4.61971662,5.96793491 4.8737137,6.91586493 4.44570887,7.65719104 C4.01770405,8.39851715 3.06977403,8.65251423 2.32844792,8.2245094 C1.58712181,7.79650457 1.33312472,6.84857455 1.76112955,6.10724844 Z M15.8581542,2.33304884 C16.286159,1.59172273 17.2340891,1.33772564 17.9754152,1.76573047 C18.7167413,2.1937353 18.9707384,3.14166532 18.5427335,3.88299143 C18.1147287,4.62431754 17.1667987,4.87831462 16.4254726,4.4503098 C15.6841465,4.02230497 15.4301494,3.07437495 15.8581542,2.33304884 Z M6.11030785,1.76400954 C6.85163396,1.33600471 7.79956398,1.5900018 8.22756881,2.33132791 C8.65557363,3.07265402 8.40157655,4.02058404 7.66025044,4.44858887 C6.91892433,4.87659369 5.97099431,4.62259661 5.54298948,3.8812705 C5.11498465,3.13994439 5.36898174,2.19201437 6.11030785,1.76400954 Z M12.0413318,0.172215844 C12.8973415,0.172215844 13.5912744,0.86614878 13.5912744,1.72215844 C13.5912744,2.5781681 12.8973415,3.27210103 12.0413318,3.27210103 C11.1853221,3.27210103 10.4913892,2.5781681 10.4913892,1.72215844 C10.4913892,0.86614878 11.1853221,0.172215844 12.0413318,0.172215844 Z" id="Combined-Shape"/>
            </g>
        </g>
    </g>
</symbol><symbol id="paused-icon" viewBox="0 0 24 24">
<path d="M11 6H9V19H11V6Z" fill="currentColor"/>
<path d="M16 6H14V19H16V6Z" fill="currentColor"/>
</symbol><symbol id="play-icon" viewBox="0 0 24 24">
<path d="M6.5 20C6.23478 20 5.98043 19.8947 5.79289 19.7072C5.60536 19.5196 5.5 19.2653 5.5 19V5.00005C5.50448 4.82672 5.55394 4.65754 5.64354 4.50911C5.73314 4.36068 5.85979 4.23809 6.01106 4.15337C6.16234 4.06866 6.33304 4.02473 6.50641 4.0259C6.67979 4.02707 6.84988 4.0733 7 4.16005L18 11.16C18.1403 11.2507 18.2557 11.3751 18.3356 11.5218C18.4155 11.6685 18.4574 11.833 18.4574 12C18.4574 12.1671 18.4155 12.3315 18.3356 12.4783C18.2557 12.625 18.1403 12.7494 18 12.84L7 19.84C6.85056 19.937 6.67794 19.9922 6.5 20ZM7.5 6.82005V17.18L15.64 12L7.5 6.82005Z" fill="currentColor"/>
</symbol><symbol id="print" viewBox="0 0 100 100">
  <path d="M74.7 25.3V10.1H25.3v15.2h-19v36c0 7.4 5.9 13.3 13.3 13.3h5.7v15.2h49.4V74.7h5.7c7.4 0 13.3-5.9 13.3-13.3v-36h-19zM29.1 13.9h41.7v11.4H29.1V13.9zm41.8 72.2H29.1V59.4h41.7v26.7zm19-24.8c0 5.3-4.2 9.5-9.5 9.5h-5.7V55.6H25.3v15.2h-5.7c-5.3 0-9.5-4.2-9.5-9.5V29.1H90v32.2z"/>
  <circle cx="80.4" cy="38.7" r="3.8"/>
  <path d="M35 76.5h28.9v3.6H35zM35 65.1h21.7v3.6H35z"/>
</symbol><symbol id="search" viewBox="0 0 24 24">
<style type="text/css">
	.st0{fill-rule:evenodd;clip-rule:evenodd;}
</style>
<path class="st0" d="M6.4,10.6c0-2.5,2-4.5,4.5-4.5c2.5,0,4.5,2,4.5,4.5c0,2.5-2,4.5-4.5,4.5C8.4,15.1,6.4,13.1,6.4,10.6z M10.9,4.1
	c-3.6,0-6.5,2.9-6.5,6.5c0,3.6,2.9,6.5,6.5,6.5c1.3,0,2.5-0.4,3.5-1l3.8,3.8l1.4-1.4l-3.7-3.7c0.9-1.1,1.5-2.6,1.5-4.1
	C17.4,7.1,14.5,4.1,10.9,4.1z"/>
</symbol><symbol id="social-copy" viewBox="0 0 24 24">
<path d="M15 11H9V13H15V11Z" fill="currentColor"/>
<path d="M5.99999 12C5.94133 11.2723 6.17025 10.5506 6.63763 9.9897C7.10502 9.42884 7.77363 9.07353 8.49999 9H11V7H8.49999C7.24149 7.06978 6.06176 7.63485 5.21857 8.57172C4.37538 9.5086 3.93728 10.7411 3.99999 12C3.93728 13.2589 4.37538 14.4914 5.21857 15.4283C6.06176 16.3652 7.24149 16.9302 8.49999 17H11V15H8.49999C7.77363 14.9265 7.10502 14.5712 6.63763 14.0103C6.17025 13.4494 5.94133 12.7277 5.99999 12Z" fill="currentColor"/>
<path d="M15.5 7H13V9H15.5C16.2264 9.07353 16.895 9.42884 17.3624 9.9897C17.8297 10.5506 18.0587 11.2723 18 12C18.0587 12.7277 17.8297 13.4494 17.3624 14.0103C16.895 14.5712 16.2264 14.9265 15.5 15H13V17H15.5C16.7585 16.9302 17.9382 16.3652 18.7814 15.4283C19.6246 14.4914 20.0627 13.2589 20 12C20.0627 10.7411 19.6246 9.5086 18.7814 8.57172C17.9382 7.63485 16.7585 7.06978 15.5 7Z" fill="currentColor"/>
</symbol><symbol id="social-email" viewBox="0 0 24 24">
<path d="M12 1.5C9.9233 1.5 7.89323 2.11581 6.16652 3.26957C4.4398 4.42332 3.09399 6.0632 2.29927 7.98182C1.50455 9.90045 1.29661 12.0116 1.70176 14.0484C2.1069 16.0852 3.10693 17.9562 4.57538 19.4246C6.04384 20.8931 7.91476 21.8931 9.95156 22.2982C11.9884 22.7034 14.0996 22.4955 16.0182 21.7007C17.9368 20.906 19.5767 19.5602 20.7304 17.8335C21.8842 16.1068 22.5 14.0767 22.5 12C22.4974 9.21604 21.3903 6.54686 19.4217 4.5783C17.4531 2.60974 14.784 1.50265 12 1.5ZM12 21.5C10.1211 21.5 8.28435 20.9428 6.72209 19.899C5.15982 18.8551 3.94218 17.3714 3.22315 15.6355C2.50412 13.8996 2.31599 11.9895 2.68254 10.1466C3.0491 8.30382 3.95389 6.61108 5.28249 5.28249C6.61109 3.95389 8.30383 3.0491 10.1466 2.68254C11.9895 2.31598 13.8996 2.50411 15.6355 3.22314C17.3714 3.94218 18.8551 5.15982 19.899 6.72208C20.9428 8.28435 21.5 10.1211 21.5 12C21.4974 14.5187 20.4956 16.9336 18.7146 18.7146C16.9336 20.4956 14.5187 21.4974 12 21.5Z" fill="currentColor"/>
<path d="M16.25 8.5H7.75C7.12 8.5 7 8.7 7 9.17V9.25C7 9.25 11.51 12.47 12 12.65C12.51 12.44 17 9.17 17 9.17C17 8.67 16.86 8.5 16.25 8.5Z" fill="currentColor"/>
<path d="M7 10.06V14.72C7 15.37 7.13 15.5 7.75 15.5H16.25C16.88 15.5 17 15.39 17 14.72V10.06C17 10.06 12.45 13.35 12 13.52C11.57 13.36 7 10.06 7 10.06Z" fill="currentColor"/>
</symbol><symbol id="social-facebook" viewBox="0 0 24 24">
<path d="M12 1.5C9.9233 1.5 7.89323 2.11581 6.16652 3.26957C4.4398 4.42332 3.09399 6.0632 2.29927 7.98182C1.50455 9.90045 1.29661 12.0116 1.70176 14.0484C2.1069 16.0852 3.10693 17.9562 4.57538 19.4246C6.04384 20.8931 7.91476 21.8931 9.95156 22.2982C11.9884 22.7034 14.0996 22.4955 16.0182 21.7007C17.9368 20.906 19.5767 19.5602 20.7304 17.8335C21.8842 16.1068 22.5 14.0767 22.5 12C22.4974 9.21604 21.3903 6.54686 19.4217 4.5783C17.4531 2.60974 14.784 1.50265 12 1.5ZM12 21.5C10.1211 21.5 8.28435 20.9428 6.72209 19.899C5.15982 18.8551 3.94218 17.3714 3.22315 15.6355C2.50412 13.8996 2.31599 11.9895 2.68254 10.1466C3.0491 8.30382 3.95389 6.61108 5.28249 5.28249C6.61109 3.95389 8.30383 3.0491 10.1466 2.68254C11.9895 2.31598 13.8996 2.50411 15.6355 3.22314C17.3714 3.94218 18.8551 5.15982 19.899 6.72208C20.9428 8.28435 21.5 10.1211 21.5 12C21.4974 14.5187 20.4956 16.9336 18.7146 18.7146C16.9336 20.4956 14.5187 21.4974 12 21.5Z" fill="currentColor"/>
<path d="M10.93 9.34999V10.66H9.40997V12.44H10.94V17H12.78V12.45H14.31L14.54 10.66H12.78V9.52999C12.78 9.00999 12.92 8.65999 13.66 8.65999H14.59V7.06999C14.1349 7.02147 13.6776 6.9981 13.22 6.99999C12.908 6.97646 12.5947 7.02161 12.3021 7.13226C12.0095 7.24291 11.7447 7.41637 11.5264 7.64041C11.3081 7.86446 11.1415 8.13364 11.0385 8.42901C10.9354 8.72439 10.8984 9.03876 10.93 9.34999Z" fill="currentColor"/>
</symbol><symbol id="social-glassdoor" viewBox="0 0 24 24">
<path d="M12 1.5C9.9233 1.5 7.89323 2.11581 6.16652 3.26957C4.4398 4.42332 3.09399 6.0632 2.29927 7.98182C1.50455 9.90045 1.29661 12.0116 1.70176 14.0484C2.1069 16.0852 3.10693 17.9562 4.57538 19.4246C6.04384 20.8931 7.91476 21.8931 9.95156 22.2982C11.9884 22.7034 14.0996 22.4955 16.0182 21.7007C17.9368 20.906 19.5767 19.5602 20.7304 17.8335C21.8842 16.1068 22.5 14.0767 22.5 12C22.4974 9.21604 21.3903 6.54686 19.4217 4.5783C17.4531 2.60974 14.784 1.50265 12 1.5ZM12 21.5C10.1211 21.5 8.28435 20.9428 6.72209 19.899C5.15982 18.8551 3.94218 17.3714 3.22315 15.6355C2.50412 13.8996 2.31599 11.9895 2.68254 10.1466C3.0491 8.30382 3.95389 6.61108 5.28249 5.28249C6.61109 3.95389 8.30383 3.0491 10.1466 2.68254C11.9895 2.31598 13.8996 2.50411 15.6355 3.22314C17.3714 3.94218 18.8551 5.15982 19.899 6.72208C20.9428 8.28435 21.5 10.1211 21.5 12C21.4974 14.5187 20.4956 16.9336 18.7146 18.7146C16.9336 20.4956 14.5187 21.4974 12 21.5Z" fill="currentColor"/>
<path d="M14.15 15.54H8.40998C8.40599 15.7303 8.44003 15.9195 8.5101 16.0965C8.58018 16.2734 8.68488 16.4346 8.81806 16.5706C8.95125 16.7066 9.11025 16.8146 9.28573 16.8884C9.46121 16.9621 9.64964 17 9.83998 17H14.15C14.5292 17 14.893 16.8493 15.1611 16.5812C15.4293 16.313 15.58 15.9493 15.58 15.57V9.60001H14.15V15.54Z" fill="currentColor"/>
<path d="M14.15 6.99999H9.84004C9.46427 7.00215 9.10467 7.15318 8.84004 7.41999C8.70749 7.55069 8.60213 7.70635 8.53004 7.87799C8.45796 8.04962 8.42057 8.23383 8.42004 8.41999V14.35H9.84004V8.39999H15.58C15.5795 8.21383 15.5421 8.02962 15.47 7.85799C15.398 7.68635 15.2926 7.53069 15.16 7.39999C14.8897 7.13805 14.5264 6.99418 14.15 6.99999Z" fill="currentColor"/>
</symbol><symbol id="social-instagram" viewBox="0 0 24 24">
<path d="M12 1.5C9.9233 1.5 7.89323 2.11581 6.16652 3.26957C4.4398 4.42332 3.09399 6.0632 2.29927 7.98182C1.50455 9.90045 1.29661 12.0116 1.70176 14.0484C2.1069 16.0852 3.10693 17.9562 4.57538 19.4246C6.04384 20.8931 7.91476 21.8931 9.95156 22.2982C11.9884 22.7034 14.0996 22.4955 16.0182 21.7007C17.9368 20.906 19.5767 19.5602 20.7304 17.8335C21.8842 16.1068 22.5 14.0767 22.5 12C22.4974 9.21604 21.3903 6.54686 19.4217 4.5783C17.4531 2.60974 14.784 1.50265 12 1.5ZM12 21.5C10.1211 21.5 8.28435 20.9428 6.72209 19.899C5.15982 18.8551 3.94218 17.3714 3.22315 15.6355C2.50412 13.8996 2.31599 11.9895 2.68254 10.1466C3.0491 8.30382 3.95389 6.61108 5.28249 5.28249C6.61109 3.95389 8.30383 3.0491 10.1466 2.68254C11.9895 2.31598 13.8996 2.50411 15.6355 3.22314C17.3714 3.94218 18.8551 5.15982 19.899 6.72208C20.9428 8.28435 21.5 10.1211 21.5 12C21.4974 14.5187 20.4956 16.9336 18.7146 18.7146C16.9336 20.4956 14.5187 21.4974 12 21.5Z" fill="currentColor"/>
<path d="M12 10.42C11.6875 10.42 11.382 10.5127 11.1222 10.6863C10.8624 10.8599 10.6598 11.1067 10.5403 11.3954C10.4207 11.6841 10.3894 12.0018 10.4503 12.3083C10.5113 12.6147 10.6618 12.8963 10.8828 13.1172C11.1037 13.3382 11.3853 13.4887 11.6917 13.5497C11.9982 13.6106 12.3159 13.5793 12.6046 13.4597C12.8933 13.3402 13.1401 13.1376 13.3137 12.8778C13.4873 12.618 13.58 12.3125 13.58 12C13.5774 11.5818 13.4101 11.1814 13.1143 10.8857C12.8186 10.5899 12.4182 10.4226 12 10.42Z" fill="currentColor"/>
<path d="M16 8.05C15.46 7.54107 14.7418 7.26455 14 7.28C13.34 7.28 12.69 7.28 12 7.28C11.31 7.28 10.69 7.28 9.99998 7.28C9.25777 7.26238 8.53875 7.5392 7.99998 8.05C7.48918 8.58877 7.21236 9.30779 7.22998 10.05C7.22998 10.71 7.22998 11.36 7.22998 12.05C7.22998 12.74 7.22998 13.36 7.22998 14.05C7.21236 14.7922 7.48918 15.5112 7.99998 16.05C8.53875 16.5608 9.25777 16.8376 9.99998 16.82C10.66 16.82 11.31 16.82 12 16.82C12.69 16.82 13.31 16.82 14 16.82C14.369 16.8321 14.7365 16.7666 15.0786 16.6278C15.4208 16.489 15.73 16.2799 15.9864 16.0142C16.2427 15.7484 16.4404 15.4318 16.5668 15.0849C16.6932 14.738 16.7454 14.3684 16.72 14C16.72 13.35 16.72 12.7 16.72 12C16.72 11.3 16.72 10.69 16.72 10C16.7381 9.28186 16.4804 8.58407 16 8.05ZM12 14.44C11.5174 14.44 11.0456 14.2969 10.6444 14.0288C10.2431 13.7607 9.93039 13.3796 9.74571 12.9337C9.56104 12.4879 9.51272 11.9973 9.60686 11.524C9.70101 11.0507 9.9334 10.6159 10.2746 10.2747C10.6159 9.93342 11.0506 9.70103 11.524 9.60688C11.9973 9.51273 12.4879 9.56105 12.9337 9.74573C13.3796 9.93041 13.7607 10.2431 14.0288 10.6444C14.2969 11.0457 14.44 11.5174 14.44 12C14.44 12.6471 14.1829 13.2677 13.7253 13.7253C13.2677 14.1829 12.6471 14.44 12 14.44ZM15.06 9.68C15.0296 9.74893 14.9892 9.81296 14.94 9.87C14.8845 9.92124 14.8201 9.9619 14.75 9.99C14.6807 10.0043 14.6093 10.0043 14.54 9.99C14.4 9.98519 14.2669 9.9281 14.1669 9.82999C14.067 9.73188 14.0074 9.59987 14 9.46C13.9892 9.37949 13.9958 9.29763 14.0193 9.21988C14.0428 9.14213 14.0826 9.0703 14.1361 9.00919C14.1896 8.94809 14.2556 8.89912 14.3295 8.86557C14.4035 8.83202 14.4838 8.81466 14.565 8.81466C14.6462 8.81466 14.7265 8.83202 14.8004 8.86557C14.8744 8.89912 14.9403 8.94809 14.9938 9.00919C15.0473 9.0703 15.0872 9.14213 15.1106 9.21988C15.1341 9.29763 15.1407 9.37949 15.13 9.46C15.1228 9.53752 15.0989 9.61257 15.06 9.68Z" fill="currentColor"/>
</symbol><symbol id="social-linkedin" viewBox="0 0 24 24">
<path d="M12 1.5C9.9233 1.5 7.89323 2.11581 6.16652 3.26957C4.4398 4.42332 3.09399 6.0632 2.29927 7.98182C1.50455 9.90045 1.29661 12.0116 1.70176 14.0484C2.1069 16.0852 3.10693 17.9562 4.57538 19.4246C6.04384 20.8931 7.91476 21.8931 9.95156 22.2982C11.9884 22.7034 14.0996 22.4955 16.0182 21.7007C17.9368 20.906 19.5767 19.5602 20.7304 17.8335C21.8842 16.1068 22.5 14.0767 22.5 12C22.4974 9.21604 21.3903 6.54686 19.4217 4.5783C17.4531 2.60974 14.784 1.50265 12 1.5ZM12 21.5C10.1211 21.5 8.28435 20.9428 6.72209 19.899C5.15982 18.8551 3.94218 17.3714 3.22315 15.6355C2.50412 13.8996 2.31599 11.9895 2.68254 10.1466C3.0491 8.30382 3.95389 6.61108 5.28249 5.28249C6.61109 3.95389 8.30383 3.0491 10.1466 2.68254C11.9895 2.31598 13.8996 2.50411 15.6355 3.22314C17.3714 3.94218 18.8551 5.15982 19.899 6.72208C20.9428 8.28435 21.5 10.1211 21.5 12C21.4974 14.5187 20.4956 16.9336 18.7146 18.7146C16.9336 20.4956 14.5187 21.4974 12 21.5Z" fill="currentColor"/>
<path d="M9.52002 10.49H7.65002V16.5H9.52002V10.49Z" fill="currentColor"/>
<path d="M14.26 10.34C13.9042 10.3351 13.5535 10.4251 13.2441 10.6009C12.9348 10.7767 12.6779 11.0318 12.5 11.34V10.52H10.68V16.52H12.55V13.52C12.55 12.74 12.7 11.98 13.67 11.98C14.64 11.98 14.67 12.88 14.67 13.58V16.5H16.5V13.2C16.5 11.58 16.15 10.34 14.26 10.34Z" fill="currentColor"/>
<path d="M8.58 7.5C8.29437 7.50261 8.02118 7.61723 7.81921 7.81921C7.61723 8.02118 7.50261 8.29437 7.5 8.58C7.5 8.72183 7.52793 8.86227 7.58221 8.9933C7.63649 9.12433 7.71604 9.24339 7.81632 9.34368C7.91661 9.44396 8.03567 9.52352 8.1667 9.57779C8.29773 9.63207 8.43817 9.66 8.58 9.66C8.72183 9.66 8.86227 9.63207 8.9933 9.57779C9.12433 9.52352 9.24339 9.44396 9.34368 9.34368C9.44396 9.24339 9.52352 9.12433 9.57779 8.9933C9.63207 8.86227 9.66 8.72183 9.66 8.58C9.65739 8.29437 9.54277 8.02118 9.34079 7.81921C9.13882 7.61723 8.86563 7.50261 8.58 7.5Z" fill="currentColor"/>
</symbol><symbol id="social-pinterest" viewBox="0 0 24 24">
<path d="M12 1.5C9.9233 1.5 7.89323 2.11581 6.16652 3.26957C4.4398 4.42332 3.09399 6.0632 2.29927 7.98182C1.50455 9.90045 1.29661 12.0116 1.70176 14.0484C2.1069 16.0852 3.10693 17.9562 4.57538 19.4246C6.04384 20.8931 7.91476 21.8931 9.95156 22.2982C11.9884 22.7034 14.0996 22.4955 16.0182 21.7007C17.9368 20.906 19.5767 19.5602 20.7304 17.8335C21.8842 16.1068 22.5 14.0767 22.5 12C22.4974 9.21604 21.3903 6.54686 19.4217 4.5783C17.4531 2.60974 14.784 1.50265 12 1.5ZM12 21.5C10.1211 21.5 8.28435 20.9428 6.72209 19.899C5.15982 18.8551 3.94218 17.3714 3.22315 15.6355C2.50412 13.8996 2.31599 11.9895 2.68254 10.1466C3.0491 8.30382 3.95389 6.61108 5.28249 5.28249C6.61109 3.95389 8.30383 3.0491 10.1466 2.68254C11.9895 2.31598 13.8996 2.50411 15.6355 3.22314C17.3714 3.94218 18.8551 5.15982 19.899 6.72208C20.9428 8.28435 21.5 10.1211 21.5 12C21.4974 14.5187 20.4956 16.9336 18.7146 18.7146C16.9336 20.4956 14.5187 21.4974 12 21.5Z" fill="currentColor"/>
<path d="M14.0001 7.39999C13.4515 7.13431 12.8495 6.99749 12.2401 6.99999C11.8213 6.99496 11.4039 7.04882 11.0001 7.15999C10.6054 7.26003 10.2279 7.41845 9.88006 7.62999C9.55726 7.83543 9.2616 8.08069 9.00006 8.35999C8.72941 8.64913 8.51869 8.98899 8.38006 9.35999C8.22619 9.74823 8.14812 10.1624 8.15006 10.58C8.15198 10.7957 8.17883 11.0104 8.23006 11.22C8.2735 11.442 8.3371 11.6595 8.42006 11.87C8.50871 12.0804 8.63398 12.2734 8.79006 12.44C8.93905 12.5941 9.12492 12.7077 9.33006 12.77H9.43006C9.52006 12.77 9.59006 12.68 9.66006 12.5C9.71227 12.3588 9.74262 12.2104 9.75006 12.06C9.73804 11.9945 9.71062 11.9328 9.67006 11.88L9.51006 11.6C9.43839 11.4783 9.38451 11.347 9.35006 11.21C9.29759 11.045 9.27061 10.8731 9.27006 10.7C9.25468 10.3281 9.319 9.95731 9.4587 9.61236C9.5984 9.26741 9.81026 8.95633 10.0801 8.69999C10.3438 8.44204 10.6568 8.24 11.0005 8.10596C11.3442 7.97193 11.7114 7.90868 12.0801 7.91999C12.7059 7.89001 13.3201 8.09712 13.8001 8.49999C14.0256 8.70237 14.2022 8.95336 14.3166 9.234C14.4309 9.51464 14.48 9.8176 14.4601 10.12C14.4601 10.31 14.4601 10.51 14.4601 10.72C14.4601 10.93 14.3901 11.15 14.3401 11.38C14.233 11.8266 14.0394 12.2479 13.7701 12.62C13.6481 12.792 13.487 12.9325 13.3001 13.03C13.1123 13.1299 12.9027 13.1814 12.6901 13.18C12.4458 13.2068 12.2001 13.1427 12.0001 13C11.9128 12.9203 11.8436 12.8228 11.797 12.7142C11.7504 12.6055 11.7276 12.4882 11.7301 12.37C11.7598 11.9814 11.851 11.6 12.0001 11.24C12.1431 10.8716 12.2307 10.4841 12.2601 10.09C12.2645 9.86679 12.1941 9.64853 12.0601 9.46999C11.9888 9.39015 11.9007 9.32718 11.8021 9.28567C11.7035 9.24415 11.5969 9.22513 11.4901 9.22998C11.3303 9.2293 11.173 9.26935 11.0331 9.34633C10.8931 9.42332 10.775 9.53471 10.6901 9.66999C10.4888 9.93828 10.3801 10.2646 10.3801 10.6C10.3676 10.9434 10.4325 11.2851 10.5701 11.6C10.5701 11.72 10.4401 12.13 10.2601 12.82C10.0801 13.51 9.94006 14.09 9.86006 14.55C9.77685 14.9582 9.73331 15.3734 9.73006 15.79C9.73006 15.91 9.73006 16.29 9.82006 16.92V16.98L10.0001 17C10.1501 16.8 10.2701 16.63 10.3701 16.48C10.4701 16.33 10.5601 16.18 10.6501 16.02L10.8401 15.64C10.9005 15.5005 10.9506 15.3568 10.9901 15.21C11.0501 15.02 11.1001 14.87 11.1201 14.79L11.2601 14.22C11.3301 13.92 11.3901 13.7 11.4301 13.54C11.5689 13.7476 11.7678 13.9081 12.0001 14C12.2521 14.124 12.5291 14.189 12.8101 14.19C13.1825 14.2006 13.5532 14.136 13.9001 14C14.2283 13.8531 14.5241 13.6423 14.7701 13.38C15.0172 13.1142 15.2198 12.8103 15.3701 12.48C15.5392 12.1453 15.6603 11.7884 15.7301 11.42C15.8101 11.0486 15.8503 10.6698 15.8501 10.29C15.8577 9.67518 15.68 9.07232 15.3401 8.55999C15.0068 8.05904 14.5436 7.65808 14.0001 7.39999Z" fill="currentColor"/>
</symbol><symbol id="social-share" viewBox="0 0 24 24">
<path d="M12 1.5C9.9233 1.5 7.89323 2.11581 6.16652 3.26957C4.4398 4.42332 3.09399 6.0632 2.29927 7.98182C1.50455 9.90045 1.29661 12.0116 1.70176 14.0484C2.1069 16.0852 3.10693 17.9562 4.57538 19.4246C6.04384 20.8931 7.91476 21.8931 9.95156 22.2982C11.9884 22.7034 14.0996 22.4955 16.0182 21.7007C17.9368 20.906 19.5767 19.5602 20.7304 17.8335C21.8842 16.1068 22.5 14.0767 22.5 12C22.4974 9.21604 21.3903 6.54686 19.4217 4.5783C17.4531 2.60974 14.784 1.50265 12 1.5ZM12 21.5C10.1211 21.5 8.28435 20.9428 6.72209 19.899C5.15982 18.8551 3.94218 17.3714 3.22315 15.6355C2.50412 13.8996 2.31599 11.9895 2.68254 10.1466C3.0491 8.30382 3.95389 6.61108 5.28249 5.28249C6.61109 3.95389 8.30383 3.0491 10.1466 2.68254C11.9895 2.31598 13.8996 2.50411 15.6355 3.22314C17.3714 3.94218 18.8551 5.15982 19.899 6.72208C20.9428 8.28435 21.5 10.1211 21.5 12C21.4974 14.5187 20.4956 16.9336 18.7146 18.7146C16.9336 20.4956 14.5187 21.4974 12 21.5Z" fill="currentColor"/>
<path d="M15.42 7.75H8.34V9.42H12.57V10.25L7.75 15.07L8.93 16.25L13.75 11.43H14.58V15.66H16.25V8.58C16.2464 8.36128 16.1565 8.15283 16 8C15.8472 7.84349 15.6387 7.75364 15.42 7.75Z" fill="currentColor"/>
</symbol><symbol id="social-twitter" viewBox="0 0 24 24">
<path d="M12 1.5C9.9233 1.5 7.89323 2.11581 6.16652 3.26957C4.4398 4.42332 3.09399 6.0632 2.29927 7.98182C1.50455 9.90045 1.29661 12.0116 1.70176 14.0484C2.1069 16.0852 3.10693 17.9562 4.57538 19.4246C6.04384 20.8931 7.91476 21.8931 9.95156 22.2982C11.9884 22.7034 14.0996 22.4955 16.0182 21.7007C17.9368 20.906 19.5767 19.5602 20.7304 17.8335C21.8842 16.1068 22.5 14.0767 22.5 12C22.4974 9.21604 21.3903 6.54686 19.4217 4.5783C17.4531 2.60974 14.784 1.50265 12 1.5ZM12 21.5C10.1211 21.5 8.28435 20.9428 6.72209 19.899C5.15982 18.8551 3.94218 17.3714 3.22315 15.6355C2.50412 13.8996 2.31599 11.9895 2.68254 10.1466C3.0491 8.30382 3.95389 6.61108 5.28249 5.28249C6.61109 3.95389 8.30383 3.0491 10.1466 2.68254C11.9895 2.31598 13.8996 2.50411 15.6355 3.22314C17.3714 3.94218 18.8551 5.15982 19.899 6.72208C20.9428 8.28435 21.5 10.1211 21.5 12C21.4974 14.5187 20.4956 16.9336 18.7146 18.7146C16.9336 20.4956 14.5187 21.4974 12 21.5Z" fill="currentColor"/>
<path d="M16.65 8.14999C16.2527 8.38166 15.8204 8.54716 15.37 8.63999C15.0699 8.30303 14.6646 8.07748 14.22 7.99999C13.7819 7.92585 13.3315 7.99974 12.94 8.20999C12.548 8.42155 12.2356 8.75504 12.05 9.15999C11.868 9.56477 11.8258 10.0186 11.93 10.45C11.1279 10.4154 10.3421 10.2123 9.6236 9.85389C8.90515 9.49553 8.27019 8.98993 7.76002 8.36999C7.58673 8.67506 7.49382 9.01916 7.49002 9.36999C7.49001 9.70166 7.57248 10.0281 7.73002 10.32C7.88909 10.6122 8.1153 10.8624 8.39002 11.05C8.07025 11.0374 7.75818 10.9482 7.48002 10.79C7.47102 11.2593 7.62738 11.7168 7.92172 12.0824C8.21606 12.4481 8.62962 12.6985 9.09002 12.79C8.79071 12.8599 8.47932 12.8599 8.18002 12.79C8.30879 13.1908 8.56075 13.5407 8.90002 13.79C9.23986 14.04 9.64826 14.1796 10.07 14.19C9.35253 14.7483 8.46913 15.051 7.56002 15.05H7.08002C7.94718 15.6065 8.94813 15.9192 9.97784 15.9555C11.0075 15.9918 12.028 15.7503 12.9322 15.2563C13.8364 14.7622 14.5909 14.0339 15.1167 13.1478C15.6424 12.2616 15.9199 11.2503 15.92 10.22C15.925 10.1301 15.925 10.0399 15.92 9.94999C16.3122 9.68127 16.6513 9.34221 16.92 8.94999C16.5513 9.11355 16.1604 9.22139 15.76 9.26999C16.181 9.01496 16.4967 8.61766 16.65 8.14999Z" fill="currentColor"/>
</symbol><symbol id="social-wechat" viewBox="0 0 24 24">
<path d="M12 1.5C9.9233 1.5 7.89323 2.11581 6.16652 3.26957C4.4398 4.42332 3.09399 6.0632 2.29927 7.98182C1.50455 9.90045 1.29661 12.0116 1.70176 14.0484C2.1069 16.0852 3.10693 17.9562 4.57538 19.4246C6.04384 20.8931 7.91476 21.8931 9.95156 22.2982C11.9884 22.7034 14.0996 22.4955 16.0182 21.7007C17.9368 20.906 19.5767 19.5602 20.7304 17.8335C21.8842 16.1068 22.5 14.0767 22.5 12C22.4974 9.21604 21.3903 6.54686 19.4217 4.5783C17.4531 2.60974 14.784 1.50265 12 1.5ZM12 21.5C10.1211 21.5 8.28435 20.9428 6.72209 19.899C5.15982 18.8551 3.94218 17.3714 3.22315 15.6355C2.50412 13.8996 2.31599 11.9895 2.68254 10.1466C3.0491 8.30382 3.95389 6.61108 5.28249 5.28249C6.61109 3.95389 8.30383 3.0491 10.1466 2.68254C11.9895 2.31598 13.8996 2.50411 15.6355 3.22314C17.3714 3.94218 18.8551 5.15982 19.899 6.72208C20.9428 8.28435 21.5 10.1211 21.5 12C21.4974 14.5187 20.4956 16.9336 18.7146 18.7146C16.9336 20.4956 14.5187 21.4974 12 21.5Z" fill="currentColor"/>
<path d="M10.53 12.93C10.668 12.269 11.0193 11.6717 11.53 11.23C11.9519 10.8619 12.4443 10.5834 12.9773 10.4115C13.5102 10.2396 14.0725 10.1778 14.63 10.23C14.5135 9.72662 14.2909 9.25391 13.977 8.84348C13.6631 8.43304 13.2653 8.09434 12.81 7.85001C12.2109 7.522 11.5491 7.32477 10.8683 7.27134C10.1874 7.2179 9.5029 7.30947 8.86001 7.54001C7.99096 7.82605 7.24623 8.40136 6.75001 9.17001C6.53103 9.51378 6.3844 9.89856 6.31907 10.3009C6.25373 10.7032 6.27106 11.1146 6.37001 11.51C6.5994 12.3823 7.15402 13.1337 7.92001 13.61C7.78001 14.02 7.64001 14.42 7.51001 14.83L8.91001 14.09C9.4713 14.2728 10.0599 14.3574 10.65 14.34C10.5004 13.8858 10.4593 13.4029 10.53 12.93ZM11.68 9.00001C11.7703 8.96744 11.8671 8.9574 11.9622 8.97073C12.0572 8.98407 12.1476 9.02039 12.2254 9.07655C12.3032 9.1327 12.3662 9.207 12.4088 9.29299C12.4514 9.37898 12.4724 9.47407 12.47 9.57001C12.4647 9.67416 12.4314 9.77494 12.3736 9.86175C12.3158 9.94856 12.2357 10.0182 12.1416 10.0633C12.0476 10.1084 11.9432 10.1273 11.8393 10.1181C11.7354 10.1088 11.636 10.0717 11.5514 10.0107C11.4668 9.94969 11.4003 9.867 11.3587 9.77134C11.3172 9.67569 11.3022 9.5706 11.3154 9.46715C11.3286 9.3637 11.3694 9.26571 11.4335 9.1835C11.4977 9.10129 11.5829 9.0379 11.68 9.00001ZM8.68001 10C8.59535 9.93512 8.52988 9.8485 8.49054 9.74936C8.4512 9.65022 8.43947 9.54227 8.4566 9.437C8.47373 9.33172 8.51907 9.23306 8.58781 9.1515C8.65655 9.06995 8.74612 9.00855 8.84697 8.97385C8.94783 8.93915 9.05621 8.93243 9.16058 8.95442C9.26494 8.97641 9.3614 9.02628 9.43968 9.09873C9.51796 9.17118 9.57514 9.26349 9.60513 9.36584C9.63512 9.4682 9.63681 9.57677 9.61001 9.68001C9.58792 9.77948 9.54044 9.87154 9.4722 9.94722C9.40396 10.0229 9.31728 10.0796 9.22061 10.1118C9.12394 10.144 9.02057 10.1507 8.92058 10.1311C8.82058 10.1115 8.72736 10.0663 8.65001 10H8.68001Z" fill="currentColor"/>
<path d="M16 10.85C15.4345 10.569 14.8115 10.4227 14.18 10.4227C13.5485 10.4227 12.9255 10.569 12.36 10.85C11.9604 11.0434 11.6086 11.3232 11.3302 11.669C11.0518 12.0149 10.8536 12.4183 10.75 12.85C10.6079 13.4977 10.7226 14.1752 11.07 14.74C11.3364 15.1503 11.6858 15.5003 12.0957 15.7673C12.5056 16.0342 12.967 16.2123 13.45 16.29C14.1372 16.4118 14.8436 16.3672 15.51 16.16C15.9033 16.3366 16.2871 16.5336 16.66 16.75C16.56 16.41 16.45 16.08 16.34 15.75C16.7911 15.4497 17.1592 15.0404 17.41 14.56C17.585 14.2215 17.6814 13.8478 17.6917 13.4669C17.7021 13.0859 17.6263 12.7075 17.47 12.36C17.1665 11.7037 16.6479 11.171 16 10.85ZM13.6 12.61C13.5718 12.6834 13.5256 12.7486 13.4657 12.7995C13.4058 12.8505 13.334 12.8856 13.257 12.9016C13.18 12.9176 13.1002 12.9141 13.025 12.8913C12.9497 12.8684 12.8813 12.8271 12.8262 12.771C12.771 12.715 12.7308 12.6459 12.7093 12.5703C12.6877 12.4947 12.6855 12.4148 12.7028 12.3381C12.7201 12.2614 12.7563 12.1902 12.8083 12.1311C12.8602 12.0721 12.9261 12.027 13 12C13.0844 11.9733 13.1746 11.9704 13.2606 11.9918C13.3465 12.0131 13.4249 12.0579 13.487 12.121C13.5491 12.1842 13.5926 12.2633 13.6125 12.3496C13.6324 12.4359 13.6281 12.526 13.6 12.61ZM15.88 12.61C15.8458 12.6751 15.7971 12.7315 15.7376 12.7748C15.6781 12.8181 15.6095 12.8472 15.537 12.8597C15.4645 12.8723 15.3901 12.868 15.3196 12.8473C15.249 12.8265 15.1841 12.7898 15.13 12.74C15.0471 12.6392 14.992 12.5186 14.97 12.39C14.97 12.17 15.17 11.94 15.41 11.94C15.4928 11.9319 15.5764 11.9459 15.652 11.9807C15.7276 12.0155 15.7927 12.0697 15.8405 12.1378C15.8883 12.206 15.9172 12.2856 15.9241 12.3686C15.931 12.4515 15.9158 12.5348 15.88 12.61Z" fill="currentColor"/>
</symbol><symbol id="social-weibo" viewBox="0 0 24 24">
<path d="M12 1.5C9.9233 1.5 7.89323 2.11581 6.16652 3.26957C4.4398 4.42332 3.09399 6.0632 2.29927 7.98182C1.50455 9.90045 1.29661 12.0116 1.70176 14.0484C2.1069 16.0852 3.10693 17.9562 4.57538 19.4246C6.04384 20.8931 7.91476 21.8931 9.95156 22.2982C11.9884 22.7034 14.0996 22.4955 16.0182 21.7007C17.9368 20.906 19.5767 19.5602 20.7304 17.8335C21.8842 16.1068 22.5 14.0767 22.5 12C22.4974 9.21604 21.3903 6.54686 19.4217 4.5783C17.4531 2.60974 14.784 1.50265 12 1.5ZM12 21.5C10.1211 21.5 8.28435 20.9428 6.72209 19.899C5.15982 18.8551 3.94218 17.3714 3.22315 15.6355C2.50412 13.8996 2.31599 11.9895 2.68254 10.1466C3.0491 8.30382 3.95389 6.61108 5.28249 5.28249C6.61109 3.95389 8.30383 3.0491 10.1466 2.68254C11.9895 2.31598 13.8996 2.50411 15.6355 3.22314C17.3714 3.94218 18.8551 5.15982 19.899 6.72208C20.9428 8.28435 21.5 10.1211 21.5 12C21.4974 14.5187 20.4956 16.9336 18.7146 18.7146C16.9336 20.4956 14.5187 21.4974 12 21.5Z" fill="currentColor"/>
<path d="M11.29 12.41C11.0754 12.3504 10.8518 12.3301 10.63 12.35C10.3051 12.3754 9.99133 12.4797 9.71596 12.654C9.44059 12.8283 9.21198 13.0672 9.05002 13.35C8.95653 13.5323 8.90511 13.7333 8.89955 13.9381C8.894 14.1429 8.93444 14.3463 9.01792 14.5334C9.1014 14.7205 9.22577 14.8865 9.3819 15.0192C9.53802 15.1519 9.72191 15.2478 9.92002 15.3C10.3696 15.4387 10.8537 15.4145 11.2871 15.2316C11.7206 15.0487 12.0757 14.7188 12.29 14.3C12.3736 14.1118 12.4133 13.9071 12.4062 13.7014C12.3991 13.4956 12.3454 13.2941 12.2491 13.1121C12.1528 12.9301 12.0165 12.7723 11.8503 12.6507C11.6842 12.5291 11.4926 12.4468 11.29 12.41ZM10.63 14.41C10.5466 14.5496 10.4166 14.6552 10.2629 14.7082C10.1092 14.7613 9.94177 14.7584 9.79002 14.7C9.72921 14.6689 9.67557 14.6255 9.63253 14.5724C9.5895 14.5194 9.55803 14.458 9.54014 14.3921C9.52225 14.3261 9.51833 14.2572 9.52864 14.1897C9.53896 14.1222 9.56327 14.0576 9.60002 14C9.66384 13.9009 9.75102 13.819 9.85389 13.7615C9.95676 13.7039 10.0722 13.6725 10.19 13.67C10.2697 13.6665 10.349 13.6837 10.42 13.72C10.4798 13.7495 10.5328 13.7908 10.5761 13.8415C10.6193 13.8922 10.6517 13.9512 10.6713 14.0148C10.691 14.0785 10.6975 14.1454 10.6904 14.2117C10.6833 14.2779 10.6627 14.342 10.63 14.4V14.41ZM11.22 13.66C11.1874 13.7125 11.1383 13.7528 11.0805 13.7745C11.0226 13.7962 10.9591 13.7981 10.9 13.78C10.8738 13.7697 10.8503 13.7537 10.831 13.7332C10.8117 13.7127 10.7973 13.6881 10.7887 13.6613C10.7801 13.6345 10.7775 13.6062 10.7812 13.5783C10.7849 13.5504 10.7947 13.5236 10.81 13.5C10.8355 13.4623 10.8699 13.4314 10.91 13.41C10.9562 13.4 11.0039 13.4 11.05 13.41H11.12C11.1427 13.4188 11.1633 13.432 11.1807 13.449C11.1981 13.4659 11.2119 13.4862 11.2213 13.5087C11.2306 13.5311 11.2353 13.5552 11.2351 13.5795C11.2349 13.6038 11.2298 13.6278 11.22 13.65V13.66Z" fill="currentColor"/>
<path d="M15.87 7.78C15.5176 7.61691 15.1376 7.52191 14.75 7.5C14.4985 7.48967 14.2466 7.50982 14 7.56C13.8887 7.58589 13.7919 7.65402 13.73 7.75C13.6969 7.79567 13.6737 7.84765 13.6616 7.90271C13.6496 7.95777 13.649 8.01472 13.66 8.07C13.6859 8.18125 13.754 8.27808 13.85 8.34C13.945 8.40018 14.0596 8.42165 14.17 8.4C14.5302 8.32073 14.9049 8.33818 15.2562 8.45059C15.6075 8.56299 15.9227 8.76635 16.17 9.04C16.4148 9.31418 16.5834 9.64782 16.6588 10.0076C16.7343 10.3673 16.714 10.7406 16.6 11.09C16.5727 11.1454 16.5576 11.2061 16.5559 11.2679C16.5541 11.3297 16.5657 11.3911 16.5899 11.448C16.614 11.5049 16.6501 11.5559 16.6957 11.5976C16.7414 11.6392 16.7954 11.6706 16.8543 11.6895C16.9131 11.7083 16.9753 11.7143 17.0367 11.707C17.0981 11.6997 17.1571 11.6792 17.2099 11.647C17.2626 11.6148 17.3078 11.5716 17.3423 11.5203C17.3768 11.4691 17.3999 11.411 17.41 11.35C17.5644 10.858 17.5894 10.3345 17.4825 9.83003C17.3757 9.32556 17.1406 8.85715 16.8 8.47C16.5377 8.18179 16.2218 7.94742 15.87 7.78Z" fill="currentColor"/>
<path d="M14.79 11.83C14.63 11.78 14.52 11.76 14.6 11.55C14.6919 11.3795 14.74 11.1887 14.74 10.995C14.74 10.8013 14.6919 10.6106 14.6 10.44C14.24 9.92001 13.24 9.95001 12.11 10.44C12.11 10.44 11.76 10.6 11.85 10.32C11.9527 10.1106 11.9967 9.87725 11.9774 9.64481C11.958 9.41237 11.876 9.18953 11.74 9.00001C11.6287 8.90368 11.4975 8.83311 11.3557 8.79335C11.214 8.75359 11.0652 8.74562 10.92 8.77001C9.82794 9.01075 8.8405 9.592 8.10001 10.43C7.17133 11.2208 6.58087 12.3373 6.45001 13.55C6.45001 15.39 8.80001 16.5 11.1 16.5C14.1 16.5 16.1 14.74 16.1 13.35C16.0743 12.9894 15.9329 12.6468 15.6969 12.3729C15.4609 12.0991 15.1428 11.9087 14.79 11.83ZM11.12 15.83C9.28001 16 7.68001 15.19 7.56001 14C7.44001 12.81 8.85001 11.67 10.68 11.49C10.9031 11.475 11.1269 11.475 11.35 11.49C12.89 11.55 14.12 12.32 14.23 13.37C14.35 14.54 13 15.67 11.12 15.85V15.83Z" fill="currentColor"/>
<path d="M15.3 10.94C15.347 11.0225 15.4213 11.0861 15.51 11.12C15.5999 11.1556 15.7001 11.1556 15.79 11.12C15.8342 11.0997 15.8738 11.0706 15.9065 11.0345C15.9392 10.9984 15.9642 10.956 15.98 10.91C16.0449 10.6676 16.0449 10.4124 15.98 10.17C15.9306 9.92255 15.8128 9.69391 15.64 9.51001C15.5178 9.36387 15.3639 9.24758 15.19 9.17C15.0341 9.0776 14.8602 9.01963 14.68 9C14.5575 8.97986 14.4325 8.97986 14.31 9C14.2617 9.01058 14.2161 9.03072 14.1757 9.05922C14.1354 9.08772 14.1012 9.12401 14.0751 9.16595C14.049 9.20789 14.0315 9.25463 14.0238 9.30342C14.0161 9.3522 14.0182 9.40204 14.03 9.45C14.0378 9.49625 14.0548 9.54046 14.08 9.58C14.1084 9.61507 14.1421 9.64544 14.18 9.67C14.2258 9.68231 14.2741 9.68231 14.32 9.67H14.46C14.5809 9.63528 14.7091 9.63528 14.83 9.67C14.9477 9.71127 15.0539 9.77981 15.14 9.87C15.2223 9.96032 15.2787 10.0711 15.3033 10.1908C15.3279 10.3105 15.3199 10.4345 15.28 10.55C15.2487 10.611 15.2341 10.6792 15.2377 10.7477C15.2412 10.8162 15.2627 10.8825 15.3 10.94Z" fill="currentColor"/>
</symbol><symbol id="social-whatsapp" viewBox="0 0 24 24">
<path d="M12 1.5C9.9233 1.5 7.89323 2.11581 6.16652 3.26957C4.4398 4.42332 3.09399 6.0632 2.29927 7.98182C1.50455 9.90045 1.29661 12.0116 1.70176 14.0484C2.1069 16.0852 3.10693 17.9562 4.57538 19.4246C6.04384 20.8931 7.91476 21.8931 9.95156 22.2982C11.9884 22.7034 14.0996 22.4955 16.0182 21.7007C17.9368 20.906 19.5767 19.5602 20.7304 17.8335C21.8842 16.1068 22.5 14.0767 22.5 12C22.4974 9.21604 21.3903 6.54686 19.4217 4.5783C17.4531 2.60974 14.784 1.50265 12 1.5ZM12 21.5C10.1211 21.5 8.28435 20.9428 6.72209 19.899C5.15982 18.8551 3.94218 17.3714 3.22315 15.6355C2.50412 13.8996 2.31599 11.9895 2.68254 10.1466C3.0491 8.30382 3.95389 6.61108 5.28249 5.28249C6.61109 3.95389 8.30383 3.0491 10.1466 2.68254C11.9895 2.31598 13.8996 2.50411 15.6355 3.22314C17.3714 3.94218 18.8551 5.15982 19.899 6.72208C20.9428 8.28435 21.5 10.1211 21.5 12C21.4974 14.5187 20.4956 16.9336 18.7146 18.7146C16.9336 20.4956 14.5187 21.4974 12 21.5Z" fill="currentColor"/>
<path d="M12 7.5C11.2092 7.50023 10.4325 7.70885 9.74796 8.10483C9.06347 8.50081 8.4954 9.07018 8.10099 9.75558C7.70658 10.441 7.49975 11.2182 7.50133 12.009C7.50291 12.7998 7.71285 13.5762 8.11 14.26L7.5 16.5L9.74 15.89C10.3373 16.2374 11.0065 16.4425 11.6959 16.4896C12.3852 16.5366 13.0761 16.4243 13.715 16.1613C14.354 15.8983 14.9238 15.4917 15.3803 14.9731C15.8368 14.4544 16.1677 13.8376 16.3474 13.1704C16.5271 12.5033 16.5508 11.8037 16.4166 11.1259C16.2824 10.4481 15.9939 9.81036 15.5735 9.26203C15.1531 8.7137 14.6121 8.26954 13.9924 7.96398C13.3727 7.65841 12.6909 7.49965 12 7.5ZM14.2 13.2C14.1832 13.3132 14.153 13.424 14.11 13.53C14.0894 13.5792 14.0588 13.6235 14.02 13.66C13.9748 13.7086 13.9245 13.7521 13.87 13.79H13.81C13.7568 13.8289 13.6998 13.8624 13.64 13.89C13.5267 13.9532 13.3997 13.9875 13.27 13.99H13H12.74C12.0972 13.826 11.5014 13.5144 11 13.08L10.71 12.8C10.3437 12.4414 10.0425 12.0218 9.82 11.56C9.72878 11.3624 9.68103 11.1476 9.68 10.93C9.67229 10.6553 9.76071 10.3865 9.93 10.17C9.96417 10.1216 10.0045 10.0779 10.05 10.04C10.0886 9.99811 10.1323 9.96116 10.18 9.93C10.2362 9.91967 10.2938 9.91967 10.35 9.93H10.6C10.6369 9.93591 10.672 9.94968 10.7031 9.97039C10.7341 9.9911 10.7604 10.0182 10.78 10.05L11.17 10.96C11.1886 10.999 11.1983 11.0417 11.1983 11.085C11.1983 11.1283 11.1886 11.171 11.17 11.21L11.05 11.37C11.05 11.44 10.89 11.56 10.89 11.56C10.8804 11.5785 10.8753 11.5991 10.8753 11.62C10.8753 11.6409 10.8804 11.6615 10.89 11.68C10.9028 11.712 10.9196 11.7422 10.94 11.77C11.0677 11.9793 11.2224 12.171 11.4 12.34L11.56 12.5C11.7739 12.6832 12.013 12.8348 12.27 12.95L12.39 13H12.47C12.4992 13.0099 12.5308 13.0099 12.56 13H12.64C12.7468 12.8492 12.8673 12.7086 13 12.58L13.07 12.53H13.17H13.25L13.88 12.81L14.14 12.93C14.1623 12.9417 14.1814 12.9588 14.1954 12.9798C14.2094 13.0007 14.2178 13.0249 14.22 13.05C14.2218 13.1008 14.2151 13.1515 14.2 13.2Z" fill="currentColor"/>
</symbol><symbol id="social-youtube" viewBox="0 0 24 24">
<path d="M12 1.5C9.9233 1.5 7.89323 2.11581 6.16652 3.26957C4.4398 4.42332 3.09399 6.0632 2.29927 7.98182C1.50455 9.90045 1.29661 12.0116 1.70176 14.0484C2.1069 16.0852 3.10693 17.9562 4.57538 19.4246C6.04384 20.8931 7.91476 21.8931 9.95156 22.2982C11.9884 22.7034 14.0996 22.4955 16.0182 21.7007C17.9368 20.906 19.5767 19.5602 20.7304 17.8335C21.8842 16.1068 22.5 14.0767 22.5 12C22.4974 9.21604 21.3903 6.54686 19.4217 4.5783C17.4531 2.60974 14.784 1.50265 12 1.5ZM12 21.5C10.1211 21.5 8.28435 20.9428 6.72209 19.899C5.15982 18.8551 3.94218 17.3714 3.22315 15.6355C2.50412 13.8996 2.31599 11.9895 2.68254 10.1466C3.0491 8.30382 3.95389 6.61108 5.28249 5.28249C6.61109 3.95389 8.30383 3.0491 10.1466 2.68254C11.9895 2.31598 13.8996 2.50411 15.6355 3.22314C17.3714 3.94218 18.8551 5.15982 19.899 6.72208C20.9428 8.28435 21.5 10.1211 21.5 12C21.4974 14.5187 20.4956 16.9336 18.7146 18.7146C16.9336 20.4956 14.5187 21.4974 12 21.5Z" fill="currentColor"/>
<path d="M16.47 8.99999C16.3115 8.85027 16.1195 8.74057 15.91 8.67999C14.612 8.53431 13.3059 8.47418 12 8.49999C10.6935 8.48413 9.38733 8.55428 8.09001 8.70999C7.87833 8.76516 7.68519 8.87579 7.5305 9.03048C7.37582 9.18516 7.26519 9.3783 7.21001 9.58999C7.06526 10.385 6.99495 11.1919 7.00001 12C6.99495 12.8081 7.06526 13.6149 7.21001 14.41C7.26519 14.6217 7.37582 14.8148 7.5305 14.9695C7.68519 15.1242 7.87833 15.2348 8.09001 15.29C9.38733 15.4457 10.6935 15.5158 12 15.5C13.3065 15.5158 14.6127 15.4457 15.91 15.29C16.1217 15.2348 16.3148 15.1242 16.4695 14.9695C16.6242 14.8148 16.7348 14.6217 16.79 14.41C16.9348 13.6149 17.0051 12.8081 17 12C17.0051 11.1919 16.9348 10.385 16.79 9.58999C16.7339 9.36983 16.6239 9.16708 16.47 8.99999ZM11 13.49V10.49L13.6 12L11 13.49Z" fill="currentColor"/>
</symbol></svg>