<svg width="414" height="500" viewBox="0 0 414 500" fill="none" xmlns="http://www.w3.org/2000/svg">
<g clip-path="url(#clip0_431_1295)">
<path d="M369.925 368.245C364.085 373.28 359.75 379.831 357.399 387.175C355.048 394.519 354.772 402.369 356.602 409.86C351.141 408.782 345.498 409.062 340.17 410.676C334.842 412.289 329.992 415.186 326.045 419.112C322.099 423.038 319.177 427.874 317.536 433.193C315.895 438.513 315.586 444.154 316.635 449.621C304.633 441.361 286.284 444.45 277.649 456.198C277.467 448.446 277.164 440.271 273.095 433.671C269.026 427.07 259.772 423.001 253.244 427.191C255.719 424.372 257.222 420.833 257.532 417.095C257.842 413.357 256.943 409.618 254.968 406.43C252.992 403.241 250.045 400.772 246.56 399.386C243.075 397.999 239.236 397.769 235.61 398.73C235.429 389.428 229.555 323.567 224.71 268H183.338C178.493 322.598 172.959 385.31 172.777 394.382C169.142 393.401 165.287 393.619 161.786 395.004C158.284 396.39 155.324 398.868 153.344 402.071C151.364 405.274 150.471 409.03 150.798 412.782C151.124 416.533 152.652 420.079 155.155 422.892C148.627 418.701 139.41 422.783 135.304 429.371C131.199 435.96 130.92 444.147 130.739 451.898C122.103 440.162 103.767 437.062 91.7522 445.322C92.8015 439.855 92.4922 434.214 90.8514 428.894C89.2106 423.574 86.2886 418.739 82.3421 414.813C78.3955 410.887 73.5452 407.99 68.2172 406.376C62.8892 404.763 57.2465 404.483 51.7849 405.56C53.7255 398.07 53.5001 390.182 51.1348 382.815C48.7696 375.447 44.3618 368.902 38.4237 363.941C32.4856 358.98 25.2613 355.806 17.5906 354.788C9.91992 353.771 2.11797 354.951 -4.9082 358.193V499.326H413.296V362.468C406.238 359.333 398.45 358.213 390.794 359.232C383.139 360.252 375.916 363.372 369.925 368.245V368.245Z" fill="#CDD4DC"/>
<g opacity="0.8">
<path opacity="0.8" d="M369.925 368.245C364.085 373.28 359.75 379.831 357.399 387.175C355.048 394.519 354.772 402.369 356.602 409.86C351.141 408.782 345.498 409.062 340.17 410.676C334.842 412.289 329.992 415.186 326.045 419.112C322.099 423.038 319.177 427.874 317.536 433.193C315.895 438.513 315.586 444.154 316.635 449.621C304.633 441.361 286.284 444.45 277.649 456.198C277.467 448.446 277.164 440.271 273.095 433.671C269.026 427.07 259.772 423.001 253.244 427.191C255.719 424.372 257.222 420.833 257.532 417.095C257.842 413.357 256.943 409.618 254.968 406.43C252.992 403.241 250.045 400.772 246.56 399.386C243.075 397.999 239.236 397.769 235.61 398.73C235.429 389.428 229.555 323.567 224.71 268H183.338C178.493 322.598 172.959 385.31 172.777 394.382C169.142 393.401 165.287 393.619 161.786 395.004C158.284 396.39 155.324 398.868 153.344 402.071C151.364 405.274 150.471 409.03 150.798 412.782C151.124 416.533 152.652 420.079 155.155 422.892C148.627 418.701 139.41 422.783 135.304 429.371C131.199 435.96 130.92 444.147 130.739 451.898C122.103 440.162 103.767 437.062 91.7522 445.322C92.8015 439.855 92.4922 434.214 90.8514 428.894C89.2106 423.574 86.2886 418.739 82.3421 414.813C78.3955 410.887 73.5452 407.99 68.2172 406.376C62.8892 404.763 57.2465 404.483 51.7849 405.56C53.7255 398.07 53.5001 390.182 51.1348 382.815C48.7696 375.447 44.3618 368.902 38.4237 363.941C32.4856 358.98 25.2613 355.806 17.5906 354.788C9.91992 353.771 2.11797 354.951 -4.9082 358.193V499.326H413.296V362.468C406.238 359.333 398.45 358.213 390.794 359.232C383.139 360.252 375.916 363.372 369.925 368.245V368.245Z" fill="white"/>
</g>
<path d="M367.37 471.143C359.864 466.102 351.405 462.654 342.514 461.013C333.623 459.371 324.49 459.572 315.679 461.602C306.869 463.631 298.568 467.447 291.292 472.813C284.015 478.179 277.917 484.981 273.374 492.798C269.695 487.827 264.888 483.801 259.349 481.05C259.742 480.006 260.069 478.938 260.33 477.853C261.402 473.213 261.271 468.376 259.951 463.8C258.631 459.225 256.164 455.062 252.785 451.706C249.407 448.35 245.227 445.912 240.642 444.623C236.058 443.335 231.22 443.237 226.588 444.341L214.21 268H197.981V430.158C187.928 431.697 180.916 443.602 184.465 453.17C180.963 453.715 177.645 455.102 174.797 457.211C171.949 459.321 169.656 462.09 168.114 465.281C167.145 467.364 167 471.773 167.836 476.763C161.709 476.874 155.688 478.382 150.231 481.171C144.774 483.961 140.026 487.958 136.346 492.859C131.804 485.042 125.705 478.24 118.428 472.874C111.152 467.508 102.851 463.692 94.041 461.662C85.2306 459.632 76.0974 459.432 67.2064 461.073C58.3153 462.714 49.8556 466.162 42.3504 471.204C38.0993 450.614 15.0757 435.984 -5.36816 440.925V499.702L183.314 499.459C184.61 499.829 185.951 500.016 187.299 500.016L233.419 499.471L415.173 499.702V440.816C394.681 435.923 371.657 450.554 367.37 471.143Z" fill="#CDD4DC"/>
<g opacity="0.6">
<path opacity="0.6" d="M367.37 471.143C359.864 466.102 351.405 462.654 342.514 461.013C333.623 459.371 324.49 459.572 315.679 461.602C306.869 463.631 298.568 467.447 291.292 472.813C284.015 478.179 277.917 484.981 273.374 492.798C269.695 487.827 264.888 483.801 259.349 481.05C259.742 480.006 260.069 478.938 260.33 477.853C261.402 473.213 261.271 468.376 259.951 463.8C258.631 459.225 256.164 455.062 252.785 451.706C249.407 448.35 245.227 445.912 240.642 444.623C236.058 443.335 231.22 443.237 226.588 444.341L214.21 268H197.981V430.158C187.928 431.697 180.916 443.602 184.465 453.17C180.963 453.715 177.645 455.102 174.797 457.211C171.949 459.321 169.656 462.09 168.114 465.281C167.145 467.364 167 471.773 167.836 476.763C161.709 476.874 155.688 478.382 150.231 481.171C144.774 483.961 140.026 487.958 136.346 492.859C131.804 485.042 125.705 478.24 118.428 472.874C111.152 467.508 102.851 463.692 94.041 461.662C85.2306 459.632 76.0974 459.432 67.2064 461.073C58.3153 462.714 49.8556 466.162 42.3504 471.204C38.0993 450.614 15.0757 435.984 -5.36816 440.925V499.702L183.314 499.459C184.61 499.829 185.951 500.016 187.299 500.016L233.419 499.471L415.173 499.702V440.816C394.681 435.923 371.657 450.554 367.37 471.143Z" fill="white"/>
</g>
<path d="M188.425 231.909C179.123 236.33 174.908 249.071 179.753 258.167C181.666 261.8 184.791 264.913 185.203 268.958C185.833 275.159 179.971 280.003 178.154 285.914C177.233 289.456 177.716 293.217 179.504 296.411C181.292 299.605 184.245 301.984 187.746 303.051C190.932 303.887 194.747 303.741 196.878 306.248C199.603 309.446 197.629 314.726 199.967 318.251C202.062 321.412 206.967 321.569 210.128 319.462C213.289 317.355 215.033 313.709 216.281 310.124C217.528 306.539 218.461 302.772 220.616 299.648C223.039 296.22 226.612 293.871 229.494 290.855C236.422 283.588 238.541 272.688 236.979 262.745C235.416 252.801 230.608 243.706 225.17 235.264" fill="#ADB7C1"/>
<g opacity="0.3">
<path opacity="0.3" d="M188.425 231.909C179.123 236.33 174.908 249.071 179.753 258.167C181.666 261.8 184.791 264.913 185.203 268.958C185.833 275.159 179.971 280.003 178.154 285.914C177.233 289.456 177.716 293.217 179.504 296.411C181.292 299.605 184.245 301.984 187.746 303.051C190.932 303.887 194.747 303.741 196.878 306.248C199.603 309.446 197.629 314.726 199.967 318.251C202.062 321.412 206.967 321.569 210.128 319.462C213.289 317.355 215.033 313.709 216.281 310.124C217.528 306.539 218.461 302.772 220.616 299.648C223.039 296.22 226.612 293.871 229.494 290.855C236.422 283.588 238.541 272.688 236.979 262.745C235.416 252.801 230.608 243.706 225.17 235.264" fill="white"/>
</g>
<path d="M196.6 237.141C188.716 240.617 185.264 251.553 189.721 258.941C192.446 263.446 197.726 267.516 196.443 272.615C195.571 276.078 191.865 278.198 190.799 281.601C189.382 286.131 193.669 290.939 198.393 291.508C203.116 292.078 207.67 289.558 211.243 286.422C223.608 275.521 226.624 254.205 218.909 239.66" fill="#ADB7C1"/>
<path d="M237.245 167.816C237.245 167.816 277.746 194.607 273.325 240.957L236.095 224.243L237.245 167.816Z" fill="#ADB7C1"/>
<path d="M169.955 223.31L179.16 238.558H226.89L236.095 224.182L169.955 223.31Z" fill="#263238"/>
<path d="M200.548 69.4602C191.466 70.0688 182.967 74.1539 176.819 80.8664C170.67 87.5789 167.344 96.4025 167.533 105.503L169.955 224.194H236.095L238.299 105.443C238.393 100.54 237.466 95.6717 235.578 91.1461C233.69 86.6205 230.883 82.5366 227.333 79.1534C223.784 75.7702 219.57 73.1615 214.959 71.4929C210.348 69.8243 205.441 69.1321 200.548 69.4602Z" fill="#ADB7C1"/>
<g opacity="0.8">
<path opacity="0.8" d="M200.548 69.4602C191.466 70.0688 182.967 74.1539 176.819 80.8664C170.67 87.5789 167.344 96.4025 167.533 105.503L169.955 224.194H236.095L238.299 105.443C238.393 100.54 237.466 95.6717 235.578 91.1461C233.69 86.6205 230.883 82.5366 227.333 79.1534C223.784 75.7702 219.57 73.1615 214.959 71.4929C210.348 69.8243 205.441 69.1321 200.548 69.4602Z" fill="white"/>
</g>
<path d="M168.744 167.816C168.744 167.816 128.292 194.607 132.725 240.957L169.955 224.219L168.744 167.816Z" fill="#ADB7C1"/>
<path d="M167.896 101.567C181.884 89.3225 225.788 89.589 237.572 99.5566C234.544 55.4956 200.899 39 200.899 39C166.479 62.8351 167.896 101.567 167.896 101.567Z" fill="#ADB7C1"/>
<path d="M200.899 39.0117L201.299 39.3751C201.553 39.6173 201.941 39.9685 202.425 40.4409L204.266 42.1849L205.477 43.2991L206.689 44.6556C207.561 45.6124 208.554 46.6661 209.607 47.853L212.829 51.8739C213.374 52.6127 213.919 53.4121 214.488 54.2114C215.058 55.0108 215.699 55.8343 216.208 56.7427C217.286 58.5352 218.485 60.3761 219.515 62.4956C221.877 67.0003 223.71 71.7635 224.977 76.69C225.691 79.429 226.221 82.2128 226.563 85.0226C226.769 86.476 226.878 87.9535 227.084 89.419C227.216 90.9413 227.268 92.4694 227.242 93.9971C227.242 106.29 227.084 119.806 226.927 133.964C226.588 162.353 226.188 188.041 225.885 206.632C225.728 215.922 225.594 223.443 225.497 228.651C225.497 231.243 225.401 233.265 225.376 234.706C225.376 235.385 225.376 235.917 225.376 236.257C225.376 236.596 225.376 236.789 225.376 236.789C225.376 236.789 225.376 236.608 225.376 236.257C225.376 235.905 225.376 235.385 225.376 234.706C225.376 233.326 225.376 231.303 225.437 228.651C225.497 223.443 225.594 215.922 225.703 206.632C225.946 188.017 226.273 162.329 226.648 133.964C226.806 119.77 226.987 106.254 226.987 93.9971C227.02 92.4855 226.968 90.9731 226.83 89.4675C226.636 87.9778 226.527 86.5123 226.333 85.0711C225.995 82.2695 225.469 79.4938 224.759 76.7627C223.508 71.8571 221.7 67.1108 219.369 62.6167C218.279 60.4972 217.08 58.6563 215.978 56.8638C215.445 55.9554 214.767 55.1561 214.27 54.3325C213.774 53.509 213.18 52.7338 212.635 51.995L209.438 47.962C208.396 46.7509 207.415 45.7214 206.543 44.7525L205.332 43.3839L204.182 42.2576L202.365 40.4893L201.263 39.3993L200.899 39.0117Z" fill="#263238"/>
<path d="M216.367 131.581C218.447 122.163 213.037 112.961 204.285 111.029C195.533 109.097 186.752 115.165 184.672 124.584C182.593 134.002 188.002 143.204 196.755 145.137C205.507 147.069 214.288 141 216.367 131.581Z" fill="#FAFAFA"/>
<path d="M204.278 111.026C204.186 111.039 204.092 111.039 204 111.026L203.212 110.917L202.631 110.82H201.916H201.093C200.79 110.82 200.475 110.82 200.148 110.82C199.412 110.866 198.679 110.963 197.956 111.111C197.096 111.293 196.253 111.548 195.437 111.874C193.443 112.669 191.618 113.837 190.06 115.313C188.171 117.096 186.695 119.27 185.736 121.684C185.469 122.342 185.246 123.018 185.07 123.706C184.985 124.058 184.876 124.409 184.791 124.76L184.609 125.85L184.513 126.407V126.964C184.513 127.34 184.452 127.727 184.428 128.103C184.404 128.478 184.428 128.866 184.428 129.253V129.835L184.488 130.428C184.808 133.719 186.069 136.847 188.122 139.439C190.283 142.256 193.369 144.22 196.836 144.986C200.302 145.753 203.928 145.272 207.076 143.63C210.014 142.124 212.46 139.808 214.125 136.956L214.427 136.46L214.682 135.927L215.191 134.897L215.59 133.831L215.784 133.299L215.941 132.754L216.232 131.688C216.317 131.337 216.353 130.973 216.426 130.622C216.548 129.921 216.629 129.213 216.668 128.502C216.829 125.909 216.416 123.312 215.457 120.897C214.348 118.07 212.484 115.602 210.067 113.763C209.472 113.32 208.849 112.915 208.202 112.552C207.899 112.407 207.633 112.237 207.367 112.116L206.604 111.801L205.937 111.535L205.38 111.365L204.605 111.135C204.517 111.112 204.432 111.08 204.351 111.038H204.617L205.392 111.232L205.974 111.389L206.64 111.644L207.415 111.946L208.263 112.37C208.926 112.732 209.565 113.137 210.176 113.581C210.885 114.117 211.552 114.704 212.175 115.337C213.681 116.901 214.874 118.738 215.687 120.751C216.688 123.194 217.131 125.83 216.983 128.466C216.954 129.189 216.877 129.909 216.753 130.622C216.68 130.985 216.644 131.349 216.559 131.712C216.474 132.075 216.365 132.439 216.256 132.802L216.111 133.347L215.917 133.88L215.505 134.97L214.997 136.024L214.742 136.569L214.427 137.077C212.746 139.992 210.256 142.356 207.258 143.884C204.042 145.571 200.334 146.068 196.788 145.285C193.242 144.503 190.086 142.492 187.879 139.609C185.807 136.955 184.545 133.758 184.246 130.404V129.811V129.217C184.246 128.829 184.246 128.43 184.246 128.006C184.246 127.582 184.246 127.231 184.343 126.795V126.226L184.428 125.656C184.5 125.293 184.561 124.918 184.622 124.554C184.682 124.191 184.815 123.84 184.912 123.476C185.091 122.778 185.322 122.094 185.603 121.429C186.578 118.976 188.088 116.771 190.023 114.974C191.612 113.491 193.47 112.328 195.497 111.547C196.327 111.225 197.181 110.973 198.053 110.796C198.785 110.656 199.525 110.567 200.269 110.529C200.608 110.529 200.923 110.529 201.226 110.529H202.062H202.776L203.358 110.638L204.145 110.784L204.278 111.026Z" fill="#263238"/>
<path d="M183.786 125.462C183.786 125.668 180.056 125.571 175.563 126.382C171.069 127.194 167.605 128.55 167.533 128.356C168.199 127.872 168.945 127.507 169.737 127.279C173.446 125.887 177.379 125.189 181.34 125.22C182.163 125.167 182.989 125.249 183.786 125.462V125.462Z" fill="#263238"/>
<path d="M237.258 125.438C236.258 125.445 235.26 125.351 234.278 125.159C232.461 124.941 229.942 124.651 227.157 124.445C224.371 124.239 221.84 124.191 219.999 124.154C219.004 124.207 218.006 124.163 217.02 124.021C217.988 123.77 218.987 123.655 219.987 123.682C222.409 123.572 224.835 123.604 227.254 123.779C229.651 123.945 232.037 124.249 234.399 124.687C235.379 124.818 236.34 125.07 237.258 125.438V125.438Z" fill="#263238"/>
<path d="M237.621 193.358C237.388 193.39 237.152 193.39 236.919 193.358L234.92 193.201L227.569 192.644C221.368 192.208 212.781 191.784 203.346 191.796C193.911 191.808 185.276 192.244 179.063 192.692L171.723 193.274L169.725 193.419C169.492 193.453 169.255 193.453 169.022 193.419C169.245 193.34 169.477 193.291 169.713 193.274L171.699 192.995C173.419 192.765 175.926 192.486 178.966 192.208C185.167 191.626 193.778 191.118 203.285 191.106C212.793 191.094 221.452 191.59 227.593 192.159C230.705 192.438 233.2 192.704 234.932 192.935L236.919 193.201C237.159 193.222 237.395 193.275 237.621 193.358Z" fill="#263238"/>
<path d="M185.543 142.48C185.543 142.576 185.131 142.613 184.852 143.085C184.771 143.207 184.718 143.344 184.695 143.488C184.672 143.633 184.68 143.78 184.719 143.921C184.781 144.07 184.885 144.197 185.018 144.288C185.152 144.378 185.309 144.428 185.47 144.43C185.632 144.454 185.797 144.43 185.946 144.361C186.095 144.292 186.22 144.181 186.306 144.042C186.366 143.909 186.397 143.764 186.397 143.618C186.397 143.472 186.366 143.327 186.306 143.194C186.1 142.685 185.7 142.589 185.724 142.492C185.748 142.395 186.281 142.31 186.729 142.964C186.856 143.159 186.935 143.382 186.96 143.613C186.986 143.844 186.956 144.078 186.875 144.296C186.753 144.568 186.547 144.793 186.288 144.939C186.028 145.085 185.729 145.144 185.434 145.108C185.179 145.094 184.933 145.009 184.725 144.862C184.516 144.716 184.353 144.513 184.254 144.278C184.156 144.043 184.126 143.784 184.167 143.533C184.208 143.281 184.32 143.046 184.489 142.855C185.022 142.213 185.591 142.395 185.543 142.48Z" fill="#263238"/>
<path d="M199.954 150.242C199.954 150.351 199.543 150.387 199.264 150.86C199.186 150.98 199.133 151.115 199.11 151.257C199.087 151.399 199.094 151.544 199.131 151.683C199.189 151.835 199.292 151.966 199.426 152.059C199.56 152.152 199.719 152.203 199.882 152.204C200.045 152.226 200.211 152.199 200.359 152.128C200.507 152.057 200.632 151.945 200.717 151.804C200.774 151.672 200.804 151.53 200.804 151.386C200.804 151.243 200.774 151.101 200.717 150.969C200.499 150.46 200.1 150.363 200.124 150.266C200.148 150.169 200.681 150.084 201.129 150.738C201.256 150.932 201.335 151.152 201.36 151.381C201.385 151.611 201.356 151.843 201.275 152.059C201.153 152.331 200.948 152.558 200.689 152.706C200.429 152.854 200.13 152.916 199.833 152.882C199.567 152.879 199.307 152.797 199.087 152.647C198.866 152.497 198.695 152.285 198.594 152.039C198.494 151.792 198.468 151.521 198.52 151.259C198.572 150.998 198.701 150.758 198.889 150.569C199.434 149.988 200.003 150.121 199.954 150.242Z" fill="#263238"/>
<path d="M215.857 143.617C215.857 143.726 215.457 143.763 215.166 144.235C215.088 144.355 215.036 144.491 215.013 144.633C214.99 144.774 214.997 144.919 215.033 145.058C215.096 145.21 215.202 145.339 215.338 145.432C215.473 145.524 215.632 145.575 215.796 145.579C215.958 145.603 216.123 145.578 216.27 145.507C216.417 145.435 216.539 145.321 216.62 145.18C216.677 145.048 216.706 144.905 216.706 144.762C216.706 144.618 216.677 144.476 216.62 144.344C216.414 143.835 216.002 143.738 216.026 143.629C216.051 143.52 216.583 143.46 217.032 144.114C217.163 144.305 217.246 144.524 217.273 144.754C217.301 144.984 217.272 145.218 217.189 145.434C217.062 145.705 216.854 145.93 216.594 146.078C216.333 146.225 216.033 146.288 215.736 146.257C215.438 146.245 215.153 146.139 214.92 145.954C214.687 145.769 214.519 145.515 214.44 145.228C214.392 145.001 214.399 144.767 214.46 144.544C214.521 144.32 214.634 144.115 214.791 143.944C215.336 143.363 215.905 143.545 215.857 143.617Z" fill="#263238"/>
<path d="M221.028 131.736C221.028 131.833 220.617 131.87 220.326 132.342C220.249 132.465 220.199 132.603 220.178 132.747C220.157 132.891 220.166 133.038 220.205 133.178C220.263 133.33 220.366 133.461 220.5 133.554C220.634 133.647 220.793 133.697 220.956 133.698C221.117 133.719 221.281 133.692 221.427 133.621C221.573 133.55 221.696 133.438 221.779 133.299C221.836 133.167 221.866 133.025 221.866 132.881C221.866 132.737 221.836 132.595 221.779 132.463C221.573 131.954 221.174 131.845 221.186 131.748C221.198 131.652 221.743 131.579 222.203 132.233C222.331 132.426 222.41 132.646 222.436 132.875C222.461 133.105 222.431 133.337 222.349 133.553C222.225 133.823 222.019 134.048 221.76 134.193C221.501 134.339 221.203 134.399 220.907 134.365C220.609 134.353 220.321 134.247 220.086 134.062C219.851 133.877 219.681 133.623 219.599 133.335C219.552 133.109 219.56 132.874 219.621 132.651C219.682 132.428 219.795 132.222 219.951 132.051C220.496 131.482 221.065 131.664 221.028 131.736Z" fill="#263238"/>
<path d="M180.286 130.586C180.286 130.683 179.874 130.719 179.596 131.192C179.518 131.314 179.466 131.452 179.443 131.596C179.42 131.739 179.427 131.886 179.463 132.027C179.522 132.178 179.626 132.309 179.759 132.401C179.893 132.494 180.051 132.545 180.214 132.548C180.376 132.567 180.541 132.539 180.689 132.468C180.837 132.398 180.962 132.287 181.049 132.148C181.109 132.017 181.14 131.875 181.14 131.731C181.14 131.586 181.109 131.444 181.049 131.313C180.843 130.804 180.444 130.695 180.468 130.598C180.492 130.501 181.025 130.429 181.473 131.083C181.6 131.275 181.68 131.495 181.705 131.725C181.731 131.955 181.701 132.187 181.618 132.403C181.496 132.674 181.291 132.899 181.031 133.046C180.772 133.192 180.473 133.251 180.177 133.214C179.878 133.202 179.591 133.097 179.356 132.912C179.121 132.727 178.951 132.472 178.869 132.185C178.822 131.957 178.83 131.722 178.893 131.498C178.957 131.275 179.073 131.07 179.233 130.901C179.765 130.332 180.335 130.513 180.286 130.586Z" fill="#263238"/>
<path d="M215.833 114.284C215.833 114.187 216.245 114.151 216.523 113.679C216.604 113.557 216.658 113.419 216.681 113.275C216.704 113.131 216.695 112.984 216.656 112.843C216.594 112.693 216.49 112.565 216.357 112.473C216.224 112.38 216.067 112.328 215.905 112.322C215.744 112.301 215.58 112.328 215.434 112.399C215.288 112.47 215.165 112.582 215.082 112.722C215.019 112.852 214.986 112.995 214.986 113.14C214.986 113.284 215.019 113.427 215.082 113.557C215.288 114.066 215.687 114.175 215.663 114.272C215.639 114.369 215.106 114.442 214.658 113.788C214.531 113.595 214.451 113.375 214.426 113.145C214.4 112.916 214.43 112.683 214.513 112.467C214.635 112.196 214.84 111.971 215.1 111.825C215.359 111.679 215.658 111.62 215.954 111.656C216.22 111.659 216.48 111.741 216.701 111.891C216.921 112.041 217.092 112.253 217.193 112.5C217.294 112.746 217.32 113.017 217.267 113.279C217.215 113.54 217.087 113.78 216.899 113.969C216.354 114.551 215.784 114.357 215.833 114.284Z" fill="#263238"/>
<path d="M199.93 107.235C199.93 107.138 200.342 107.102 200.621 106.629C200.699 106.507 200.751 106.369 200.774 106.225C200.797 106.082 200.79 105.935 200.754 105.794C200.69 105.643 200.584 105.514 200.448 105.422C200.313 105.33 200.155 105.278 199.991 105.273C199.83 105.252 199.666 105.279 199.52 105.35C199.373 105.421 199.251 105.533 199.167 105.673C199.11 105.805 199.081 105.947 199.081 106.091C199.081 106.234 199.11 106.376 199.167 106.508C199.373 107.029 199.785 107.126 199.761 107.223C199.737 107.32 199.204 107.405 198.756 106.738C198.595 106.524 198.502 106.266 198.489 105.998C198.476 105.73 198.544 105.464 198.683 105.235C198.823 105.006 199.028 104.823 199.271 104.711C199.515 104.6 199.787 104.563 200.052 104.607C200.349 104.619 200.634 104.726 200.867 104.911C201.1 105.096 201.268 105.35 201.347 105.636C201.394 105.863 201.387 106.097 201.326 106.32C201.265 106.544 201.152 106.749 200.996 106.92C200.451 107.502 199.882 107.32 199.93 107.235Z" fill="#263238"/>
<path d="M184.21 114.285C184.21 114.188 184.622 114.152 184.9 113.679C184.978 113.556 185.03 113.419 185.053 113.275C185.076 113.132 185.069 112.985 185.033 112.844C184.969 112.693 184.863 112.564 184.728 112.472C184.593 112.38 184.434 112.328 184.27 112.323C184.109 112.302 183.945 112.329 183.799 112.4C183.653 112.471 183.53 112.583 183.447 112.723C183.39 112.854 183.36 112.997 183.36 113.14C183.36 113.284 183.39 113.426 183.447 113.558C183.653 114.067 184.064 114.176 184.04 114.273C184.016 114.37 183.483 114.442 183.035 113.788C182.874 113.573 182.782 113.315 182.769 113.048C182.756 112.78 182.823 112.514 182.963 112.285C183.102 112.055 183.307 111.873 183.551 111.761C183.794 111.649 184.066 111.613 184.331 111.657C184.628 111.669 184.914 111.775 185.147 111.96C185.379 112.145 185.548 112.399 185.627 112.686C185.674 112.913 185.666 113.147 185.605 113.37C185.544 113.593 185.431 113.799 185.276 113.97C184.731 114.551 184.161 114.358 184.21 114.285Z" fill="#263238"/>
<path d="M197.92 172.684L199.337 243.547C199.359 244.531 199.771 245.466 200.482 246.148C201.192 246.829 202.144 247.2 203.128 247.181V247.181C204.085 247.159 204.996 246.769 205.673 246.093C206.35 245.416 206.74 244.504 206.761 243.547C206.907 230.782 207.379 187.835 207.452 172.611C207.454 171.924 207.308 171.245 207.023 170.62C206.738 169.995 206.321 169.439 205.801 168.99C205.281 168.541 204.67 168.21 204.01 168.02C203.35 167.83 202.657 167.785 201.977 167.888C200.835 168.061 199.794 168.642 199.048 169.524C198.302 170.406 197.901 171.529 197.92 172.684Z" fill="#ADB7C1"/>
<g opacity="0.3">
<path opacity="0.3" d="M197.92 172.684L199.337 243.547C199.359 244.531 199.771 245.466 200.482 246.148C201.192 246.829 202.144 247.2 203.128 247.181V247.181C204.085 247.159 204.996 246.769 205.673 246.093C206.35 245.416 206.74 244.504 206.761 243.547C206.907 230.782 207.379 187.835 207.452 172.611C207.454 171.924 207.308 171.245 207.023 170.62C206.738 169.995 206.321 169.439 205.801 168.99C205.281 168.541 204.67 168.21 204.01 168.02C203.35 167.83 202.657 167.785 201.977 167.888C200.835 168.061 199.794 168.642 199.048 169.524C198.302 170.406 197.901 171.529 197.92 172.684Z" fill="black"/>
</g>
<path d="M200.112 43.057C200.318 43.2992 197.969 45.5761 194.541 49.5728C192.821 51.5591 190.908 54.0298 188.885 56.8396C186.735 59.9229 184.753 63.121 182.951 66.4197C181.194 69.738 179.621 73.1505 178.239 76.6416C177.028 79.8754 175.999 82.8426 175.284 85.3739C173.843 90.4364 173.237 93.658 172.862 93.6096C172.486 93.5611 172.729 90.2669 173.843 85.0227C174.51 81.958 175.376 78.94 176.435 75.9876C177.746 72.3709 179.308 68.8501 181.11 65.4508C182.96 62.0875 185.032 58.8508 187.311 55.7617C189.193 53.2499 191.236 50.863 193.427 48.616C197.242 44.7525 199.955 42.8753 200.112 43.057Z" fill="white"/>
<path d="M167.254 174.865C167.448 175.168 164.093 177.287 159.418 181.672L157.614 183.392C156.984 183.997 156.402 184.687 155.748 185.354C154.428 186.686 153.193 188.26 151.849 189.871C149.042 193.453 146.55 197.27 144.4 201.28C142.304 205.324 140.554 209.537 139.168 213.876C138.599 215.886 137.957 217.8 137.642 219.629C137.448 220.549 137.218 221.421 137.073 222.281C136.927 223.141 136.794 223.952 136.673 224.703C135.728 231.013 135.813 234.998 135.462 235.01C135.317 235.01 135.183 234.029 135.062 232.212C135.062 231.752 135.002 231.243 134.978 230.698C134.953 230.153 134.978 229.548 134.978 228.906C134.987 227.445 135.072 225.986 135.232 224.534C135.317 223.722 135.414 222.874 135.51 221.99C135.607 221.106 135.813 220.198 135.971 219.265C136.273 217.364 136.818 215.39 137.363 213.307C139.934 204.272 144.369 195.876 150.383 188.66C151.688 187.09 153.07 185.586 154.525 184.155C155.203 183.488 155.845 182.81 156.511 182.229L158.449 180.57C159.56 179.616 160.72 178.723 161.925 177.893C162.446 177.518 162.93 177.154 163.391 176.851L164.687 176.076C166.322 175.192 167.169 174.744 167.254 174.865Z" fill="white"/>
<path d="M115.127 405.925C113.498 405.001 112.191 403.6 111.383 401.91C110.575 400.221 110.305 398.324 110.608 396.476C110.912 394.628 111.775 392.917 113.081 391.575C114.387 390.233 116.074 389.323 117.913 388.969C121.231 388.315 125.385 389.26 127.469 386.547C129.37 384.124 127.941 380.927 128.777 377.051C129.612 373.176 132.943 371.347 136.613 371.395C138.452 371.502 140.235 372.074 141.794 373.057C143.353 374.039 144.637 375.401 145.526 377.015C147.491 380.604 148.378 384.683 148.082 388.763C147.101 397.132 142.632 401.419 137.073 404.968C131.514 408.517 120.989 409.328 115.127 405.852" fill="#ADB7C1"/>
<g opacity="0.8">
<path opacity="0.8" d="M115.127 405.925C113.498 405.001 112.191 403.6 111.383 401.91C110.575 400.221 110.305 398.324 110.608 396.476C110.912 394.628 111.775 392.917 113.081 391.575C114.387 390.233 116.074 389.323 117.913 388.969C121.231 388.315 125.385 389.26 127.469 386.547C129.37 384.124 127.941 380.927 128.777 377.051C129.612 373.176 132.943 371.347 136.613 371.395C138.452 371.502 140.235 372.074 141.794 373.057C143.353 374.039 144.637 375.401 145.526 377.015C147.491 380.604 148.378 384.683 148.082 388.763C147.101 397.132 142.632 401.419 137.073 404.968C131.514 408.517 120.989 409.328 115.127 405.852" fill="white"/>
</g>
<path d="M251.004 338.84C252.354 336.258 254.46 334.15 257.042 332.799C259.623 331.448 262.555 330.919 265.446 331.281C268.337 331.643 271.048 332.88 273.216 334.827C275.384 336.773 276.905 339.335 277.576 342.171C278.787 347.318 277.576 353.834 281.852 356.946C285.739 359.768 290.656 357.334 296.761 358.4C302.865 359.465 305.917 364.552 306.05 370.293C306.183 376.034 302.671 381.484 297.814 384.536C292.335 387.814 286.028 389.446 279.647 389.235C266.531 388.206 259.567 381.484 253.693 373.03C247.819 364.576 245.929 348.19 251.004 338.84" fill="#ADB7C1"/>
<g opacity="0.8">
<path opacity="0.8" d="M251.004 338.84C252.354 336.258 254.46 334.15 257.042 332.799C259.623 331.448 262.555 330.919 265.446 331.281C268.337 331.643 271.048 332.88 273.216 334.827C275.384 336.773 276.905 339.335 277.576 342.171C278.787 347.318 277.576 353.834 281.852 356.946C285.739 359.768 290.656 357.334 296.761 358.4C302.865 359.465 305.917 364.552 306.05 370.293C306.183 376.034 302.671 381.484 297.814 384.536C292.335 387.814 286.028 389.446 279.647 389.235C266.531 388.206 259.567 381.484 253.693 373.03C247.819 364.576 245.929 348.19 251.004 338.84" fill="white"/>
</g>
<path d="M153.133 321.666C151.673 322.417 150.448 323.556 149.593 324.958C148.738 326.359 148.287 327.97 148.288 329.611C148.349 331.435 148.997 333.19 150.135 334.617C151.273 336.043 152.841 337.064 154.606 337.528C156.37 337.992 158.238 337.874 159.93 337.192C161.623 336.51 163.05 335.3 164 333.742C164.95 332.184 165.372 330.361 165.203 328.545C165.034 326.728 164.284 325.014 163.063 323.657C161.843 322.301 160.217 321.375 158.428 321.016C156.639 320.657 154.782 320.885 153.133 321.666" fill="#ADB7C1"/>
<g opacity="0.8">
<path opacity="0.8" d="M153.133 321.666C151.673 322.417 150.448 323.556 149.593 324.958C148.738 326.359 148.287 327.97 148.288 329.611C148.349 331.435 148.997 333.19 150.135 334.617C151.273 336.043 152.841 337.064 154.606 337.528C156.37 337.992 158.238 337.874 159.93 337.192C161.623 336.51 163.05 335.3 164 333.742C164.95 332.184 165.372 330.361 165.203 328.545C165.034 326.728 164.284 325.014 163.063 323.657C161.843 322.301 160.217 321.375 158.428 321.016C156.639 320.657 154.782 320.885 153.133 321.666" fill="white"/>
</g>
<path d="M281.9 423.231C281.172 423.609 280.561 424.179 280.134 424.879C279.707 425.579 279.48 426.383 279.478 427.203C279.506 428.119 279.83 429 280.4 429.716C280.97 430.433 281.756 430.946 282.642 431.18C283.527 431.413 284.464 431.355 285.314 431.013C286.163 430.671 286.879 430.064 287.356 429.283C287.833 428.501 288.044 427.586 287.959 426.674C287.874 425.763 287.497 424.903 286.884 424.223C286.271 423.543 285.454 423.079 284.556 422.9C283.658 422.721 282.727 422.837 281.9 423.231" fill="#ADB7C1"/>
<g opacity="0.8">
<path opacity="0.8" d="M281.9 423.231C281.172 423.609 280.561 424.179 280.134 424.879C279.707 425.579 279.48 426.383 279.478 427.203C279.506 428.119 279.83 429 280.4 429.716C280.97 430.433 281.756 430.946 282.642 431.18C283.527 431.413 284.464 431.355 285.314 431.013C286.163 430.671 286.879 430.064 287.356 429.283C287.833 428.501 288.044 427.586 287.959 426.674C287.874 425.763 287.497 424.903 286.884 424.223C286.271 423.543 285.454 423.079 284.556 422.9C283.658 422.721 282.727 422.837 281.9 423.231" fill="white"/>
</g>
</g>
<defs>
<clipPath id="clip0_431_1295">
<rect width="500" height="500" fill="white" transform="translate(-43)"/>
</clipPath>
</defs>
</svg>
